G04 #@! TF.GenerationSoftware,KiCad,Pcbnew,(5.0.2)-1*
G04 #@! TF.CreationDate,2019-04-15T21:52:42-04:00*
G04 #@! TF.ProjectId,gomagottcha,676f6d61-676f-4747-9463-68612e6b6963,rev?*
G04 #@! TF.SameCoordinates,Original*
G04 #@! TF.FileFunction,Copper,L2,Bot*
G04 #@! TF.FilePolarity,Positive*
%FSLAX46Y46*%
G04 Gerber Fmt 4.6, Leading zero omitted, Abs format (unit mm)*
G04 Created by KiCad (PCBNEW (5.0.2)-1) date 4/15/2019 9:52:42 PM*
%MOMM*%
%LPD*%
G01*
G04 APERTURE LIST*
G04 #@! TA.AperFunction,ComponentPad*
%ADD10C,2.000000*%
G04 #@! TD*
G04 #@! TA.AperFunction,ComponentPad*
%ADD11C,1.000000*%
G04 #@! TD*
G04 #@! TA.AperFunction,ComponentPad*
%ADD12C,2.750000*%
G04 #@! TD*
G04 #@! TA.AperFunction,Conductor*
%ADD13C,0.100000*%
G04 #@! TD*
G04 #@! TA.AperFunction,ComponentPad*
%ADD14C,1.500000*%
G04 #@! TD*
G04 #@! TA.AperFunction,ComponentPad*
%ADD15R,1.700000X1.700000*%
G04 #@! TD*
G04 #@! TA.AperFunction,ComponentPad*
%ADD16O,1.700000X1.700000*%
G04 #@! TD*
G04 #@! TA.AperFunction,ComponentPad*
%ADD17O,2.000000X3.600000*%
G04 #@! TD*
G04 #@! TA.AperFunction,ComponentPad*
%ADD18C,2.700000*%
G04 #@! TD*
G04 #@! TA.AperFunction,ComponentPad*
%ADD19O,1.600000X0.900000*%
G04 #@! TD*
G04 #@! TA.AperFunction,ComponentPad*
%ADD20C,8.000000*%
G04 #@! TD*
G04 #@! TA.AperFunction,ViaPad*
%ADD21C,0.800000*%
G04 #@! TD*
G04 #@! TA.AperFunction,Conductor*
%ADD22C,0.250000*%
G04 #@! TD*
G04 #@! TA.AperFunction,Conductor*
%ADD23C,0.200000*%
G04 #@! TD*
G04 #@! TA.AperFunction,Conductor*
%ADD24C,0.254000*%
G04 #@! TD*
G04 APERTURE END LIST*
D10*
G04 #@! TO.P,S1,2*
G04 #@! TO.N,/RESET*
X115530000Y-88860000D03*
X115530000Y-83860000D03*
G04 #@! TO.P,S1,1*
G04 #@! TO.N,GND*
X110530000Y-83860000D03*
X110530000Y-88860000D03*
G04 #@! TD*
D11*
G04 #@! TO.P,U8,2*
G04 #@! TO.N,/RES*
X100990400Y-75006200D03*
G04 #@! TO.P,U8,1*
G04 #@! TO.N,/CS1*
X102260400Y-75006200D03*
G04 #@! TO.P,U8,3*
G04 #@! TO.N,/A0*
X99720400Y-75006200D03*
G04 #@! TO.P,U8,4*
G04 #@! TO.N,/WR*
X98450400Y-75006200D03*
G04 #@! TO.P,U8,5*
G04 #@! TO.N,/RD*
X97180400Y-75006200D03*
G04 #@! TO.P,U8,6*
G04 #@! TO.N,Net-(U8-Pad6)*
X95910400Y-75006200D03*
G04 #@! TO.P,U8,7*
G04 #@! TO.N,Net-(U8-Pad7)*
X94640400Y-75006200D03*
G04 #@! TO.P,U8,8*
G04 #@! TO.N,Net-(U8-Pad8)*
X93370400Y-75006200D03*
G04 #@! TO.P,U8,9*
G04 #@! TO.N,Net-(U8-Pad9)*
X92100400Y-75006200D03*
G04 #@! TO.P,U8,10*
G04 #@! TO.N,Net-(U8-Pad10)*
X90830400Y-75006200D03*
G04 #@! TO.P,U8,11*
G04 #@! TO.N,Net-(U8-Pad11)*
X89560400Y-75006200D03*
G04 #@! TO.P,U8,12*
G04 #@! TO.N,/SCK*
X88290400Y-75006200D03*
G04 #@! TO.P,U8,13*
G04 #@! TO.N,/MOSI*
X87020400Y-75006200D03*
G04 #@! TO.P,U8,14*
G04 #@! TO.N,+3V3*
X85750400Y-75006200D03*
G04 #@! TO.P,U8,15*
G04 #@! TO.N,GND*
X84480400Y-75006200D03*
G04 #@! TO.P,U8,16*
G04 #@! TO.N,Net-(C19-Pad1)*
X83210400Y-75006200D03*
G04 #@! TO.P,U8,17*
G04 #@! TO.N,Net-(C20-Pad1)*
X81940400Y-75006200D03*
G04 #@! TO.P,U8,18*
G04 #@! TO.N,Net-(C20-Pad2)*
X80670400Y-75006200D03*
G04 #@! TO.P,U8,19*
G04 #@! TO.N,Net-(C21-Pad1)*
X79400400Y-75006200D03*
G04 #@! TO.P,U8,20*
G04 #@! TO.N,Net-(C22-Pad2)*
X78130400Y-75006200D03*
G04 #@! TO.P,U8,21*
G04 #@! TO.N,Net-(C22-Pad1)*
X76860400Y-75006200D03*
G04 #@! TO.P,U8,22*
G04 #@! TO.N,Net-(C13-Pad1)*
X75590400Y-75006200D03*
G04 #@! TO.P,U8,23*
G04 #@! TO.N,Net-(C14-Pad1)*
X74320400Y-75006200D03*
G04 #@! TO.P,U8,24*
G04 #@! TO.N,Net-(C15-Pad1)*
X73050400Y-75006200D03*
G04 #@! TO.P,U8,25*
G04 #@! TO.N,Net-(C16-Pad1)*
X71780400Y-75006200D03*
G04 #@! TO.P,U8,26*
G04 #@! TO.N,Net-(C17-Pad1)*
X70510400Y-75006200D03*
G04 #@! TO.P,U8,27*
G04 #@! TO.N,+3V3*
X69240400Y-75006200D03*
G04 #@! TO.P,U8,28*
G04 #@! TO.N,GND*
X67970400Y-75006200D03*
D12*
G04 #@! TO.P,U8,32*
G04 #@! TO.N,N/C*
X121315400Y-73056200D03*
G04 #@! TO.P,U8,29*
X48915400Y-73056200D03*
D13*
G04 #@! TD*
G04 #@! TO.N,N/C*
G04 #@! TO.C,U8*
G36*
X56152156Y-71668006D02*
X56188559Y-71673406D01*
X56224257Y-71682347D01*
X56258906Y-71694745D01*
X56292174Y-71710480D01*
X56323739Y-71729399D01*
X56353297Y-71751321D01*
X56380565Y-71776035D01*
X56405279Y-71803303D01*
X56427201Y-71832861D01*
X56446120Y-71864426D01*
X56461855Y-71897694D01*
X56474253Y-71932343D01*
X56483194Y-71968041D01*
X56488594Y-72004444D01*
X56490400Y-72041200D01*
X56490400Y-72791200D01*
X56488594Y-72827956D01*
X56483194Y-72864359D01*
X56474253Y-72900057D01*
X56461855Y-72934706D01*
X56446120Y-72967974D01*
X56427201Y-72999539D01*
X56405279Y-73029097D01*
X56380565Y-73056365D01*
X56353297Y-73081079D01*
X56323739Y-73103001D01*
X56292174Y-73121920D01*
X56258906Y-73137655D01*
X56224257Y-73150053D01*
X56188559Y-73158994D01*
X56152156Y-73164394D01*
X56115400Y-73166200D01*
X54115400Y-73166200D01*
X54078644Y-73164394D01*
X54042241Y-73158994D01*
X54006543Y-73150053D01*
X53971894Y-73137655D01*
X53938626Y-73121920D01*
X53907061Y-73103001D01*
X53877503Y-73081079D01*
X53850235Y-73056365D01*
X53825521Y-73029097D01*
X53803599Y-72999539D01*
X53784680Y-72967974D01*
X53768945Y-72934706D01*
X53756547Y-72900057D01*
X53747606Y-72864359D01*
X53742206Y-72827956D01*
X53740400Y-72791200D01*
X53740400Y-72041200D01*
X53742206Y-72004444D01*
X53747606Y-71968041D01*
X53756547Y-71932343D01*
X53768945Y-71897694D01*
X53784680Y-71864426D01*
X53803599Y-71832861D01*
X53825521Y-71803303D01*
X53850235Y-71776035D01*
X53877503Y-71751321D01*
X53907061Y-71729399D01*
X53938626Y-71710480D01*
X53971894Y-71694745D01*
X54006543Y-71682347D01*
X54042241Y-71673406D01*
X54078644Y-71668006D01*
X54115400Y-71666200D01*
X56115400Y-71666200D01*
X56152156Y-71668006D01*
X56152156Y-71668006D01*
G37*
D14*
G04 #@! TO.P,U8,30*
G04 #@! TO.N,N/C*
X55115400Y-72416200D03*
D13*
G04 #@! TD*
G04 #@! TO.N,N/C*
G04 #@! TO.C,U8*
G36*
X116152156Y-71668006D02*
X116188559Y-71673406D01*
X116224257Y-71682347D01*
X116258906Y-71694745D01*
X116292174Y-71710480D01*
X116323739Y-71729399D01*
X116353297Y-71751321D01*
X116380565Y-71776035D01*
X116405279Y-71803303D01*
X116427201Y-71832861D01*
X116446120Y-71864426D01*
X116461855Y-71897694D01*
X116474253Y-71932343D01*
X116483194Y-71968041D01*
X116488594Y-72004444D01*
X116490400Y-72041200D01*
X116490400Y-72791200D01*
X116488594Y-72827956D01*
X116483194Y-72864359D01*
X116474253Y-72900057D01*
X116461855Y-72934706D01*
X116446120Y-72967974D01*
X116427201Y-72999539D01*
X116405279Y-73029097D01*
X116380565Y-73056365D01*
X116353297Y-73081079D01*
X116323739Y-73103001D01*
X116292174Y-73121920D01*
X116258906Y-73137655D01*
X116224257Y-73150053D01*
X116188559Y-73158994D01*
X116152156Y-73164394D01*
X116115400Y-73166200D01*
X114115400Y-73166200D01*
X114078644Y-73164394D01*
X114042241Y-73158994D01*
X114006543Y-73150053D01*
X113971894Y-73137655D01*
X113938626Y-73121920D01*
X113907061Y-73103001D01*
X113877503Y-73081079D01*
X113850235Y-73056365D01*
X113825521Y-73029097D01*
X113803599Y-72999539D01*
X113784680Y-72967974D01*
X113768945Y-72934706D01*
X113756547Y-72900057D01*
X113747606Y-72864359D01*
X113742206Y-72827956D01*
X113740400Y-72791200D01*
X113740400Y-72041200D01*
X113742206Y-72004444D01*
X113747606Y-71968041D01*
X113756547Y-71932343D01*
X113768945Y-71897694D01*
X113784680Y-71864426D01*
X113803599Y-71832861D01*
X113825521Y-71803303D01*
X113850235Y-71776035D01*
X113877503Y-71751321D01*
X113907061Y-71729399D01*
X113938626Y-71710480D01*
X113971894Y-71694745D01*
X114006543Y-71682347D01*
X114042241Y-71673406D01*
X114078644Y-71668006D01*
X114115400Y-71666200D01*
X116115400Y-71666200D01*
X116152156Y-71668006D01*
X116152156Y-71668006D01*
G37*
D14*
G04 #@! TO.P,U8,31*
G04 #@! TO.N,N/C*
X115115400Y-72416200D03*
G04 #@! TD*
D15*
G04 #@! TO.P,J2,1*
G04 #@! TO.N,/MISO*
X88328500Y-71437500D03*
D16*
G04 #@! TO.P,J2,2*
G04 #@! TO.N,+3V3*
X88328500Y-68897500D03*
G04 #@! TO.P,J2,3*
G04 #@! TO.N,/SCK*
X90868500Y-71437500D03*
G04 #@! TO.P,J2,4*
G04 #@! TO.N,/MOSI*
X90868500Y-68897500D03*
G04 #@! TO.P,J2,5*
G04 #@! TO.N,/RESET*
X93408500Y-71437500D03*
G04 #@! TO.P,J2,6*
G04 #@! TO.N,GND*
X93408500Y-68897500D03*
G04 #@! TD*
D13*
G04 #@! TO.N,Net-(BT1-Pad1)*
G04 #@! TO.C,BT1*
G36*
X122694504Y-80751204D02*
X122718773Y-80754804D01*
X122742571Y-80760765D01*
X122765671Y-80769030D01*
X122787849Y-80779520D01*
X122808893Y-80792133D01*
X122828598Y-80806747D01*
X122846777Y-80823223D01*
X122863253Y-80841402D01*
X122877867Y-80861107D01*
X122890480Y-80882151D01*
X122900970Y-80904329D01*
X122909235Y-80927429D01*
X122915196Y-80951227D01*
X122918796Y-80975496D01*
X122920000Y-81000000D01*
X122920000Y-84100000D01*
X122918796Y-84124504D01*
X122915196Y-84148773D01*
X122909235Y-84172571D01*
X122900970Y-84195671D01*
X122890480Y-84217849D01*
X122877867Y-84238893D01*
X122863253Y-84258598D01*
X122846777Y-84276777D01*
X122828598Y-84293253D01*
X122808893Y-84307867D01*
X122787849Y-84320480D01*
X122765671Y-84330970D01*
X122742571Y-84339235D01*
X122718773Y-84345196D01*
X122694504Y-84348796D01*
X122670000Y-84350000D01*
X121170000Y-84350000D01*
X121145496Y-84348796D01*
X121121227Y-84345196D01*
X121097429Y-84339235D01*
X121074329Y-84330970D01*
X121052151Y-84320480D01*
X121031107Y-84307867D01*
X121011402Y-84293253D01*
X120993223Y-84276777D01*
X120976747Y-84258598D01*
X120962133Y-84238893D01*
X120949520Y-84217849D01*
X120939030Y-84195671D01*
X120930765Y-84172571D01*
X120924804Y-84148773D01*
X120921204Y-84124504D01*
X120920000Y-84100000D01*
X120920000Y-81000000D01*
X120921204Y-80975496D01*
X120924804Y-80951227D01*
X120930765Y-80927429D01*
X120939030Y-80904329D01*
X120949520Y-80882151D01*
X120962133Y-80861107D01*
X120976747Y-80841402D01*
X120993223Y-80823223D01*
X121011402Y-80806747D01*
X121031107Y-80792133D01*
X121052151Y-80779520D01*
X121074329Y-80769030D01*
X121097429Y-80760765D01*
X121121227Y-80754804D01*
X121145496Y-80751204D01*
X121170000Y-80750000D01*
X122670000Y-80750000D01*
X122694504Y-80751204D01*
X122694504Y-80751204D01*
G37*
D10*
G04 #@! TD*
G04 #@! TO.P,BT1,1*
G04 #@! TO.N,Net-(BT1-Pad1)*
X121920000Y-82550000D03*
D17*
G04 #@! TO.P,BT1,2*
G04 #@! TO.N,GND*
X126920000Y-82550000D03*
G04 #@! TD*
D10*
G04 #@! TO.P,S4,1*
G04 #@! TO.N,+3V3*
X69890000Y-88860000D03*
X69890000Y-83860000D03*
G04 #@! TO.P,S4,2*
G04 #@! TO.N,/BUTTON3*
X74890000Y-83860000D03*
X74890000Y-88860000D03*
G04 #@! TD*
G04 #@! TO.P,S3,2*
G04 #@! TO.N,/BUTTON2*
X87590000Y-88860000D03*
X87590000Y-83860000D03*
G04 #@! TO.P,S3,1*
G04 #@! TO.N,+3V3*
X82590000Y-83860000D03*
X82590000Y-88860000D03*
G04 #@! TD*
G04 #@! TO.P,S2,1*
G04 #@! TO.N,+3V3*
X95290000Y-88860000D03*
X95290000Y-83860000D03*
G04 #@! TO.P,S2,2*
G04 #@! TO.N,/BUTTON1*
X100290000Y-83860000D03*
X100290000Y-88860000D03*
G04 #@! TD*
D18*
G04 #@! TO.P,SW1,1*
G04 #@! TO.N,Net-(SW1-Pad1)*
X45466000Y-81079000D03*
G04 #@! TO.P,SW1,2*
G04 #@! TO.N,Net-(BT1-Pad1)*
X40866000Y-81079000D03*
G04 #@! TD*
D19*
G04 #@! TO.P,J1,6*
G04 #@! TO.N,Net-(J1-Pad6)*
X39116000Y-36955000D03*
X39116000Y-30355000D03*
G04 #@! TD*
D20*
G04 #@! TO.P,REF\002A\002A,1*
G04 #@! TO.N,N/C*
X59690000Y-86360000D03*
G04 #@! TD*
G04 #@! TO.P,REF\002A\002A,1*
G04 #@! TO.N,N/C*
X46355000Y-19050000D03*
G04 #@! TD*
G04 #@! TO.P,REF\002A\002A,1*
G04 #@! TO.N,N/C*
X123825000Y-19050000D03*
G04 #@! TD*
D21*
G04 #@! TO.N,GND*
X43434000Y-34925000D03*
X61087000Y-31242000D03*
X53467000Y-33655000D03*
X53467000Y-41021000D03*
X74155180Y-42975665D03*
X56121180Y-38657665D03*
X63233180Y-43610665D03*
X67043180Y-40943665D03*
X63106180Y-40308665D03*
X63106180Y-38403665D03*
X67564000Y-26543000D03*
X43942000Y-51181000D03*
X72542400Y-69215000D03*
X81686400Y-78994000D03*
X73812400Y-78994000D03*
X129286000Y-64389000D03*
X130048000Y-71882000D03*
X93722650Y-61239432D03*
X108899150Y-61683932D03*
X110359650Y-45999432D03*
X93659150Y-45300932D03*
X87757000Y-26035000D03*
X81851500Y-30734000D03*
X128315287Y-38793065D03*
X103886000Y-49784000D03*
X129794000Y-42164000D03*
X126238000Y-47498000D03*
X94488000Y-35814000D03*
X130683000Y-26670000D03*
X97231200Y-80467200D03*
X104775000Y-82423000D03*
X89154000Y-79375000D03*
X76962000Y-82296000D03*
X127000000Y-86360000D03*
G04 #@! TO.N,Net-(SW1-Pad1)*
X49220000Y-34544000D03*
G04 #@! TO.N,/MOSI*
X92710000Y-65481200D03*
X102870000Y-53975000D03*
G04 #@! TO.N,/MISO*
X92608400Y-64414400D03*
X102997000Y-52578000D03*
G04 #@! TO.N,/SCK*
X104267000Y-51689000D03*
X94081600Y-63601600D03*
G04 #@! TO.N,/RESET*
X102235000Y-50165000D03*
X94945200Y-62382400D03*
X75387200Y-44754800D03*
X77165200Y-44754800D03*
X99314000Y-53086000D03*
G04 #@! TO.N,+3V3*
X73914000Y-28194000D03*
X90272188Y-51003200D03*
X76352400Y-51054000D03*
X92934149Y-46380400D03*
X121031000Y-45974000D03*
X115316000Y-45974000D03*
X102870000Y-55626000D03*
X100584000Y-57912000D03*
G04 #@! TO.N,Net-(R8-Pad1)*
X74091800Y-47904400D03*
X84836000Y-47904400D03*
X84836000Y-43180000D03*
X104140000Y-43180000D03*
G04 #@! TO.N,Net-(R7-Pad1)*
X74117200Y-49987200D03*
X86309200Y-49885600D03*
X86360000Y-42164000D03*
X103124000Y-42164000D03*
G04 #@! TO.N,/PWM_1*
X73578995Y-55707005D03*
X69346805Y-55707005D03*
G04 #@! TO.N,/PWM_2*
X100838000Y-48260000D03*
X120142000Y-48260000D03*
G04 #@! TO.N,/SCL*
X85661500Y-33274000D03*
X89128600Y-33299400D03*
G04 #@! TO.N,/MEAS_BAT*
X101854000Y-65532000D03*
X110490000Y-65532000D03*
G04 #@! TO.N,/RX_IND*
X122174000Y-33680400D03*
X122174000Y-29819600D03*
G04 #@! TO.N,/VBAT*
X108712000Y-62992000D03*
X110490000Y-62992000D03*
G04 #@! TD*
D22*
G04 #@! TO.N,Net-(SW1-Pad1)*
X49220000Y-34544000D02*
X45720000Y-38044000D01*
X45720000Y-38044000D02*
X45720000Y-81280000D01*
D23*
G04 #@! TO.N,/MOSI*
X96666010Y-60178990D02*
X102870000Y-53975000D01*
X96666010Y-62828988D02*
X96666010Y-60178990D01*
X92710000Y-65481200D02*
X94013798Y-65481200D01*
X94013798Y-65481200D02*
X96666010Y-62828988D01*
X89718499Y-72308101D02*
X89718499Y-69895101D01*
X87020400Y-75006200D02*
X89718499Y-72308101D01*
X89718499Y-69895101D02*
X90830400Y-68783200D01*
G04 #@! TO.N,/MISO*
X96266000Y-59309000D02*
X102997000Y-52578000D01*
X96266000Y-62663300D02*
X96266000Y-59309000D01*
X92608400Y-64414400D02*
X94514900Y-64414400D01*
X94514900Y-64414400D02*
X96266000Y-62663300D01*
G04 #@! TO.N,/SCK*
X94762002Y-63601600D02*
X94081600Y-63601600D01*
X95645201Y-62718401D02*
X94762002Y-63601600D01*
X95645201Y-58348114D02*
X95645201Y-62718401D01*
X90868500Y-71437500D02*
X90868500Y-72351900D01*
X90868500Y-72351900D02*
X88239600Y-74980800D01*
X102304315Y-51689000D02*
X95645201Y-58348114D01*
X104267000Y-51689000D02*
X102304315Y-51689000D01*
G04 #@! TO.N,/RESET*
X94945200Y-62382400D02*
X94945200Y-61306884D01*
X102235000Y-50165000D02*
X99314000Y-53086000D01*
X94945200Y-57454800D02*
X94945200Y-61306884D01*
X75387200Y-44754800D02*
X77165200Y-44754800D01*
X76911200Y-44754800D02*
X77165200Y-44754800D01*
X77165200Y-44754800D02*
X76911200Y-44754800D01*
X99314000Y-53086000D02*
X94945200Y-57454800D01*
X93408500Y-71437500D02*
X103441500Y-71437500D01*
X103441500Y-71437500D02*
X115570000Y-83566000D01*
G04 #@! TO.N,+3V3*
X90221388Y-51054000D02*
X90272188Y-51003200D01*
X76352400Y-51054000D02*
X90221388Y-51054000D01*
X90272188Y-49042361D02*
X92934149Y-46380400D01*
X90272188Y-51003200D02*
X90272188Y-49042361D01*
X85750400Y-75006200D02*
X85750400Y-71475600D01*
X85750400Y-71475600D02*
X88341200Y-68884800D01*
X121031000Y-45974000D02*
X115316000Y-45974000D01*
X115316000Y-45974000D02*
X115316000Y-45974000D01*
X102870000Y-55626000D02*
X100584000Y-57912000D01*
G04 #@! TO.N,Net-(R8-Pad1)*
X74091800Y-47904400D02*
X77571600Y-47904400D01*
X77571600Y-47904400D02*
X77571600Y-47904400D01*
X84836000Y-43180000D02*
X90932000Y-43180000D01*
X90932000Y-43180000D02*
X90932000Y-43180000D01*
X90932000Y-43180000D02*
X103124000Y-43180000D01*
X103124000Y-43180000D02*
X103124000Y-43180000D01*
X103124000Y-43180000D02*
X104140000Y-43180000D01*
X104140000Y-43180000D02*
X104140000Y-43180000D01*
X77571600Y-47904400D02*
X84836000Y-47904400D01*
G04 #@! TO.N,Net-(R7-Pad1)*
X74117200Y-49885600D02*
X77647800Y-49885600D01*
X77647800Y-49885600D02*
X77647800Y-49885600D01*
X86360000Y-42164000D02*
X90932000Y-42164000D01*
X90932000Y-42164000D02*
X90932000Y-42164000D01*
X90932000Y-42164000D02*
X103124000Y-42164000D01*
X103124000Y-42164000D02*
X103124000Y-42164000D01*
X77647800Y-49885600D02*
X86309200Y-49885600D01*
G04 #@! TO.N,/PWM_1*
X73578995Y-55707005D02*
X69346805Y-55707005D01*
X69346805Y-55707005D02*
X69346805Y-55707005D01*
G04 #@! TO.N,/PWM_2*
X100838000Y-48260000D02*
X119380000Y-48260000D01*
X119380000Y-48260000D02*
X120142000Y-48260000D01*
X120142000Y-48260000D02*
X120142000Y-48260000D01*
D22*
G04 #@! TO.N,/SCL*
X85661500Y-33274000D02*
X85661500Y-33274000D01*
D23*
X85686900Y-33299400D02*
X85661500Y-33274000D01*
X89128600Y-33299400D02*
X85686900Y-33299400D01*
G04 #@! TO.N,/MEAS_BAT*
X101854000Y-65532000D02*
X110490000Y-65532000D01*
X110490000Y-65532000D02*
X110490000Y-65532000D01*
G04 #@! TO.N,/RX_IND*
X122174000Y-33680400D02*
X122174000Y-29819600D01*
X123596400Y-29819600D02*
X123596400Y-29819600D01*
G04 #@! TO.N,/VBAT*
X108712000Y-62992000D02*
X110490000Y-62992000D01*
X110490000Y-62992000D02*
X110490000Y-62992000D01*
G04 #@! TD*
D24*
G04 #@! TO.N,GND*
G36*
X43729483Y-15120637D02*
X42425637Y-16424483D01*
X41720000Y-18128041D01*
X41720000Y-19971959D01*
X42425637Y-21675517D01*
X43729483Y-22979363D01*
X45433041Y-23685000D01*
X47276959Y-23685000D01*
X48980517Y-22979363D01*
X50284363Y-21675517D01*
X50990000Y-19971959D01*
X50990000Y-18128041D01*
X50284363Y-16424483D01*
X48980517Y-15120637D01*
X47977081Y-14705000D01*
X122202919Y-14705000D01*
X121199483Y-15120637D01*
X119895637Y-16424483D01*
X119190000Y-18128041D01*
X119190000Y-19971959D01*
X119895637Y-21675517D01*
X121199483Y-22979363D01*
X122903041Y-23685000D01*
X124746959Y-23685000D01*
X126450517Y-22979363D01*
X127754363Y-21675517D01*
X128460000Y-19971959D01*
X128460000Y-18128041D01*
X127754363Y-16424483D01*
X126450517Y-15120637D01*
X125447081Y-14705000D01*
X131751001Y-14705000D01*
X131751001Y-28891482D01*
X129568079Y-28891482D01*
X129519478Y-28901149D01*
X129478276Y-28928679D01*
X129450746Y-28969881D01*
X129441079Y-29018482D01*
X129441079Y-31177482D01*
X129450746Y-31226083D01*
X129478276Y-31267285D01*
X129519478Y-31294815D01*
X129568079Y-31304482D01*
X131751001Y-31304482D01*
X131751001Y-32193482D01*
X126520079Y-32193482D01*
X126471478Y-32203149D01*
X126430276Y-32230679D01*
X126402746Y-32271881D01*
X126393079Y-32320482D01*
X126393079Y-36384482D01*
X126403855Y-36435678D01*
X126432294Y-36476258D01*
X126474097Y-36502865D01*
X126522901Y-36511451D01*
X131751001Y-36395271D01*
X131751000Y-92000000D01*
X38175000Y-92000000D01*
X38175000Y-85438041D01*
X55055000Y-85438041D01*
X55055000Y-87281959D01*
X55760637Y-88985517D01*
X57064483Y-90289363D01*
X58768041Y-90995000D01*
X60611959Y-90995000D01*
X62315517Y-90289363D01*
X63619363Y-88985517D01*
X63806065Y-88534778D01*
X68255000Y-88534778D01*
X68255000Y-89185222D01*
X68503914Y-89786153D01*
X68963847Y-90246086D01*
X69564778Y-90495000D01*
X70215222Y-90495000D01*
X70816153Y-90246086D01*
X71276086Y-89786153D01*
X71525000Y-89185222D01*
X71525000Y-88534778D01*
X73255000Y-88534778D01*
X73255000Y-89185222D01*
X73503914Y-89786153D01*
X73963847Y-90246086D01*
X74564778Y-90495000D01*
X75215222Y-90495000D01*
X75816153Y-90246086D01*
X76276086Y-89786153D01*
X76525000Y-89185222D01*
X76525000Y-88534778D01*
X80955000Y-88534778D01*
X80955000Y-89185222D01*
X81203914Y-89786153D01*
X81663847Y-90246086D01*
X82264778Y-90495000D01*
X82915222Y-90495000D01*
X83516153Y-90246086D01*
X83976086Y-89786153D01*
X84225000Y-89185222D01*
X84225000Y-88534778D01*
X85955000Y-88534778D01*
X85955000Y-89185222D01*
X86203914Y-89786153D01*
X86663847Y-90246086D01*
X87264778Y-90495000D01*
X87915222Y-90495000D01*
X88516153Y-90246086D01*
X88976086Y-89786153D01*
X89225000Y-89185222D01*
X89225000Y-88534778D01*
X93655000Y-88534778D01*
X93655000Y-89185222D01*
X93903914Y-89786153D01*
X94363847Y-90246086D01*
X94964778Y-90495000D01*
X95615222Y-90495000D01*
X96216153Y-90246086D01*
X96676086Y-89786153D01*
X96925000Y-89185222D01*
X96925000Y-88534778D01*
X98655000Y-88534778D01*
X98655000Y-89185222D01*
X98903914Y-89786153D01*
X99363847Y-90246086D01*
X99964778Y-90495000D01*
X100615222Y-90495000D01*
X101216153Y-90246086D01*
X101449707Y-90012532D01*
X109557073Y-90012532D01*
X109655736Y-90279387D01*
X110265461Y-90505908D01*
X110915460Y-90481856D01*
X111404264Y-90279387D01*
X111502927Y-90012532D01*
X110530000Y-89039605D01*
X109557073Y-90012532D01*
X101449707Y-90012532D01*
X101676086Y-89786153D01*
X101925000Y-89185222D01*
X101925000Y-88595461D01*
X108884092Y-88595461D01*
X108908144Y-89245460D01*
X109110613Y-89734264D01*
X109377468Y-89832927D01*
X110350395Y-88860000D01*
X110709605Y-88860000D01*
X111682532Y-89832927D01*
X111949387Y-89734264D01*
X112175908Y-89124539D01*
X112154085Y-88534778D01*
X113895000Y-88534778D01*
X113895000Y-89185222D01*
X114143914Y-89786153D01*
X114603847Y-90246086D01*
X115204778Y-90495000D01*
X115855222Y-90495000D01*
X116456153Y-90246086D01*
X116916086Y-89786153D01*
X117165000Y-89185222D01*
X117165000Y-88534778D01*
X116916086Y-87933847D01*
X116456153Y-87473914D01*
X115855222Y-87225000D01*
X115204778Y-87225000D01*
X114603847Y-87473914D01*
X114143914Y-87933847D01*
X113895000Y-88534778D01*
X112154085Y-88534778D01*
X112151856Y-88474540D01*
X111949387Y-87985736D01*
X111682532Y-87887073D01*
X110709605Y-88860000D01*
X110350395Y-88860000D01*
X109377468Y-87887073D01*
X109110613Y-87985736D01*
X108884092Y-88595461D01*
X101925000Y-88595461D01*
X101925000Y-88534778D01*
X101676086Y-87933847D01*
X101449707Y-87707468D01*
X109557073Y-87707468D01*
X110530000Y-88680395D01*
X111502927Y-87707468D01*
X111404264Y-87440613D01*
X110794539Y-87214092D01*
X110144540Y-87238144D01*
X109655736Y-87440613D01*
X109557073Y-87707468D01*
X101449707Y-87707468D01*
X101216153Y-87473914D01*
X100615222Y-87225000D01*
X99964778Y-87225000D01*
X99363847Y-87473914D01*
X98903914Y-87933847D01*
X98655000Y-88534778D01*
X96925000Y-88534778D01*
X96676086Y-87933847D01*
X96216153Y-87473914D01*
X95615222Y-87225000D01*
X94964778Y-87225000D01*
X94363847Y-87473914D01*
X93903914Y-87933847D01*
X93655000Y-88534778D01*
X89225000Y-88534778D01*
X88976086Y-87933847D01*
X88516153Y-87473914D01*
X87915222Y-87225000D01*
X87264778Y-87225000D01*
X86663847Y-87473914D01*
X86203914Y-87933847D01*
X85955000Y-88534778D01*
X84225000Y-88534778D01*
X83976086Y-87933847D01*
X83516153Y-87473914D01*
X82915222Y-87225000D01*
X82264778Y-87225000D01*
X81663847Y-87473914D01*
X81203914Y-87933847D01*
X80955000Y-88534778D01*
X76525000Y-88534778D01*
X76276086Y-87933847D01*
X75816153Y-87473914D01*
X75215222Y-87225000D01*
X74564778Y-87225000D01*
X73963847Y-87473914D01*
X73503914Y-87933847D01*
X73255000Y-88534778D01*
X71525000Y-88534778D01*
X71276086Y-87933847D01*
X70816153Y-87473914D01*
X70215222Y-87225000D01*
X69564778Y-87225000D01*
X68963847Y-87473914D01*
X68503914Y-87933847D01*
X68255000Y-88534778D01*
X63806065Y-88534778D01*
X64325000Y-87281959D01*
X64325000Y-85438041D01*
X63619363Y-83734483D01*
X63419658Y-83534778D01*
X68255000Y-83534778D01*
X68255000Y-84185222D01*
X68503914Y-84786153D01*
X68963847Y-85246086D01*
X69564778Y-85495000D01*
X70215222Y-85495000D01*
X70816153Y-85246086D01*
X71276086Y-84786153D01*
X71525000Y-84185222D01*
X71525000Y-83534778D01*
X73255000Y-83534778D01*
X73255000Y-84185222D01*
X73503914Y-84786153D01*
X73963847Y-85246086D01*
X74564778Y-85495000D01*
X75215222Y-85495000D01*
X75816153Y-85246086D01*
X76276086Y-84786153D01*
X76525000Y-84185222D01*
X76525000Y-83534778D01*
X80955000Y-83534778D01*
X80955000Y-84185222D01*
X81203914Y-84786153D01*
X81663847Y-85246086D01*
X82264778Y-85495000D01*
X82915222Y-85495000D01*
X83516153Y-85246086D01*
X83976086Y-84786153D01*
X84225000Y-84185222D01*
X84225000Y-83534778D01*
X85955000Y-83534778D01*
X85955000Y-84185222D01*
X86203914Y-84786153D01*
X86663847Y-85246086D01*
X87264778Y-85495000D01*
X87915222Y-85495000D01*
X88516153Y-85246086D01*
X88976086Y-84786153D01*
X89225000Y-84185222D01*
X89225000Y-83534778D01*
X93655000Y-83534778D01*
X93655000Y-84185222D01*
X93903914Y-84786153D01*
X94363847Y-85246086D01*
X94964778Y-85495000D01*
X95615222Y-85495000D01*
X96216153Y-85246086D01*
X96676086Y-84786153D01*
X96925000Y-84185222D01*
X96925000Y-83534778D01*
X98655000Y-83534778D01*
X98655000Y-84185222D01*
X98903914Y-84786153D01*
X99363847Y-85246086D01*
X99964778Y-85495000D01*
X100615222Y-85495000D01*
X101216153Y-85246086D01*
X101449707Y-85012532D01*
X109557073Y-85012532D01*
X109655736Y-85279387D01*
X110265461Y-85505908D01*
X110915460Y-85481856D01*
X111404264Y-85279387D01*
X111502927Y-85012532D01*
X110530000Y-84039605D01*
X109557073Y-85012532D01*
X101449707Y-85012532D01*
X101676086Y-84786153D01*
X101925000Y-84185222D01*
X101925000Y-83595461D01*
X108884092Y-83595461D01*
X108908144Y-84245460D01*
X109110613Y-84734264D01*
X109377468Y-84832927D01*
X110350395Y-83860000D01*
X110709605Y-83860000D01*
X111682532Y-84832927D01*
X111949387Y-84734264D01*
X112175908Y-84124539D01*
X112151856Y-83474540D01*
X111949387Y-82985736D01*
X111682532Y-82887073D01*
X110709605Y-83860000D01*
X110350395Y-83860000D01*
X109377468Y-82887073D01*
X109110613Y-82985736D01*
X108884092Y-83595461D01*
X101925000Y-83595461D01*
X101925000Y-83534778D01*
X101676086Y-82933847D01*
X101449707Y-82707468D01*
X109557073Y-82707468D01*
X110530000Y-83680395D01*
X111502927Y-82707468D01*
X111404264Y-82440613D01*
X110794539Y-82214092D01*
X110144540Y-82238144D01*
X109655736Y-82440613D01*
X109557073Y-82707468D01*
X101449707Y-82707468D01*
X101216153Y-82473914D01*
X100615222Y-82225000D01*
X99964778Y-82225000D01*
X99363847Y-82473914D01*
X98903914Y-82933847D01*
X98655000Y-83534778D01*
X96925000Y-83534778D01*
X96676086Y-82933847D01*
X96216153Y-82473914D01*
X95615222Y-82225000D01*
X94964778Y-82225000D01*
X94363847Y-82473914D01*
X93903914Y-82933847D01*
X93655000Y-83534778D01*
X89225000Y-83534778D01*
X88976086Y-82933847D01*
X88516153Y-82473914D01*
X87915222Y-82225000D01*
X87264778Y-82225000D01*
X86663847Y-82473914D01*
X86203914Y-82933847D01*
X85955000Y-83534778D01*
X84225000Y-83534778D01*
X83976086Y-82933847D01*
X83516153Y-82473914D01*
X82915222Y-82225000D01*
X82264778Y-82225000D01*
X81663847Y-82473914D01*
X81203914Y-82933847D01*
X80955000Y-83534778D01*
X76525000Y-83534778D01*
X76276086Y-82933847D01*
X75816153Y-82473914D01*
X75215222Y-82225000D01*
X74564778Y-82225000D01*
X73963847Y-82473914D01*
X73503914Y-82933847D01*
X73255000Y-83534778D01*
X71525000Y-83534778D01*
X71276086Y-82933847D01*
X70816153Y-82473914D01*
X70215222Y-82225000D01*
X69564778Y-82225000D01*
X68963847Y-82473914D01*
X68503914Y-82933847D01*
X68255000Y-83534778D01*
X63419658Y-83534778D01*
X62315517Y-82430637D01*
X60611959Y-81725000D01*
X58768041Y-81725000D01*
X57064483Y-82430637D01*
X55760637Y-83734483D01*
X55055000Y-85438041D01*
X38175000Y-85438041D01*
X38175000Y-80684159D01*
X38881000Y-80684159D01*
X38881000Y-81473841D01*
X39183199Y-82203412D01*
X39741588Y-82761801D01*
X40471159Y-83064000D01*
X41260841Y-83064000D01*
X41990412Y-82761801D01*
X42548801Y-82203412D01*
X42851000Y-81473841D01*
X42851000Y-80684159D01*
X43481000Y-80684159D01*
X43481000Y-81473841D01*
X43783199Y-82203412D01*
X44341588Y-82761801D01*
X45071159Y-83064000D01*
X45860841Y-83064000D01*
X46590412Y-82761801D01*
X47148801Y-82203412D01*
X47451000Y-81473841D01*
X47451000Y-80684159D01*
X47148801Y-79954588D01*
X46590412Y-79396199D01*
X46480000Y-79350465D01*
X46480000Y-72656386D01*
X46905400Y-72656386D01*
X46905400Y-73456014D01*
X47211404Y-74194773D01*
X47776827Y-74760196D01*
X48515586Y-75066200D01*
X49315214Y-75066200D01*
X49810195Y-74861172D01*
X66822288Y-74861172D01*
X66854183Y-75311575D01*
X66965183Y-75579552D01*
X67180296Y-75616699D01*
X67790795Y-75006200D01*
X67180296Y-74395701D01*
X66965183Y-74432848D01*
X66822288Y-74861172D01*
X49810195Y-74861172D01*
X50053973Y-74760196D01*
X50598073Y-74216096D01*
X67359901Y-74216096D01*
X67970400Y-74826595D01*
X67984543Y-74812453D01*
X68105400Y-74933310D01*
X68105400Y-75079090D01*
X67984543Y-75199948D01*
X67970400Y-75185805D01*
X67359901Y-75796304D01*
X67397048Y-76011417D01*
X67825372Y-76154312D01*
X68275775Y-76122417D01*
X68543752Y-76011417D01*
X68557996Y-75928929D01*
X68597474Y-75968407D01*
X69014634Y-76141200D01*
X69466166Y-76141200D01*
X69875400Y-75971690D01*
X70284634Y-76141200D01*
X70736166Y-76141200D01*
X71145400Y-75971690D01*
X71554634Y-76141200D01*
X72006166Y-76141200D01*
X72415400Y-75971690D01*
X72824634Y-76141200D01*
X73276166Y-76141200D01*
X73685400Y-75971690D01*
X74094634Y-76141200D01*
X74546166Y-76141200D01*
X74955400Y-75971690D01*
X75364634Y-76141200D01*
X75816166Y-76141200D01*
X76225400Y-75971690D01*
X76634634Y-76141200D01*
X77086166Y-76141200D01*
X77495400Y-75971690D01*
X77904634Y-76141200D01*
X78356166Y-76141200D01*
X78765400Y-75971690D01*
X79174634Y-76141200D01*
X79626166Y-76141200D01*
X80035400Y-75971690D01*
X80444634Y-76141200D01*
X80896166Y-76141200D01*
X81305400Y-75971690D01*
X81714634Y-76141200D01*
X82166166Y-76141200D01*
X82575400Y-75971690D01*
X82984634Y-76141200D01*
X83436166Y-76141200D01*
X83853326Y-75968407D01*
X83892804Y-75928929D01*
X83907048Y-76011417D01*
X84335372Y-76154312D01*
X84785775Y-76122417D01*
X85053752Y-76011417D01*
X85067996Y-75928929D01*
X85107474Y-75968407D01*
X85524634Y-76141200D01*
X85976166Y-76141200D01*
X86385400Y-75971690D01*
X86794634Y-76141200D01*
X87246166Y-76141200D01*
X87655400Y-75971690D01*
X88064634Y-76141200D01*
X88516166Y-76141200D01*
X88925400Y-75971690D01*
X89334634Y-76141200D01*
X89786166Y-76141200D01*
X90195400Y-75971690D01*
X90604634Y-76141200D01*
X91056166Y-76141200D01*
X91465400Y-75971690D01*
X91874634Y-76141200D01*
X92326166Y-76141200D01*
X92735400Y-75971690D01*
X93144634Y-76141200D01*
X93596166Y-76141200D01*
X94005400Y-75971690D01*
X94414634Y-76141200D01*
X94866166Y-76141200D01*
X95275400Y-75971690D01*
X95684634Y-76141200D01*
X96136166Y-76141200D01*
X96545400Y-75971690D01*
X96954634Y-76141200D01*
X97406166Y-76141200D01*
X97815400Y-75971690D01*
X98224634Y-76141200D01*
X98676166Y-76141200D01*
X99085400Y-75971690D01*
X99494634Y-76141200D01*
X99946166Y-76141200D01*
X100355400Y-75971690D01*
X100764634Y-76141200D01*
X101216166Y-76141200D01*
X101625400Y-75971690D01*
X102034634Y-76141200D01*
X102486166Y-76141200D01*
X102903326Y-75968407D01*
X103222607Y-75649126D01*
X103395400Y-75231966D01*
X103395400Y-74780434D01*
X103222607Y-74363274D01*
X102903326Y-74043993D01*
X102486166Y-73871200D01*
X102034634Y-73871200D01*
X101625400Y-74040710D01*
X101216166Y-73871200D01*
X100764634Y-73871200D01*
X100355400Y-74040710D01*
X99946166Y-73871200D01*
X99494634Y-73871200D01*
X99085400Y-74040710D01*
X98676166Y-73871200D01*
X98224634Y-73871200D01*
X97815400Y-74040710D01*
X97406166Y-73871200D01*
X96954634Y-73871200D01*
X96545400Y-74040710D01*
X96136166Y-73871200D01*
X95684634Y-73871200D01*
X95275400Y-74040710D01*
X94866166Y-73871200D01*
X94414634Y-73871200D01*
X94005400Y-74040710D01*
X93596166Y-73871200D01*
X93144634Y-73871200D01*
X92735400Y-74040710D01*
X92326166Y-73871200D01*
X91874634Y-73871200D01*
X91465400Y-74040710D01*
X91056166Y-73871200D01*
X90604634Y-73871200D01*
X90235921Y-74023926D01*
X91337037Y-72922809D01*
X91398405Y-72881805D01*
X91425852Y-72840728D01*
X91447918Y-72836339D01*
X91939125Y-72508125D01*
X92138500Y-72209739D01*
X92337875Y-72508125D01*
X92829082Y-72836339D01*
X93262244Y-72922500D01*
X93554756Y-72922500D01*
X93987918Y-72836339D01*
X94479125Y-72508125D01*
X94703382Y-72172500D01*
X103137054Y-72172500D01*
X114072005Y-83107452D01*
X113895000Y-83534778D01*
X113895000Y-84185222D01*
X114143914Y-84786153D01*
X114603847Y-85246086D01*
X115204778Y-85495000D01*
X115855222Y-85495000D01*
X116456153Y-85246086D01*
X116916086Y-84786153D01*
X117165000Y-84185222D01*
X117165000Y-83534778D01*
X116916086Y-82933847D01*
X116456153Y-82473914D01*
X115855222Y-82225000D01*
X115268447Y-82225000D01*
X114043447Y-81000000D01*
X120272560Y-81000000D01*
X120272560Y-84100000D01*
X120340874Y-84443435D01*
X120535414Y-84734586D01*
X120826565Y-84929126D01*
X121170000Y-84997440D01*
X122670000Y-84997440D01*
X123013435Y-84929126D01*
X123304586Y-84734586D01*
X123499126Y-84443435D01*
X123567440Y-84100000D01*
X123567440Y-82677000D01*
X125285000Y-82677000D01*
X125285000Y-83477000D01*
X125458058Y-84093020D01*
X125853683Y-84595922D01*
X126411645Y-84909144D01*
X126539566Y-84940124D01*
X126793000Y-84820777D01*
X126793000Y-82677000D01*
X127047000Y-82677000D01*
X127047000Y-84820777D01*
X127300434Y-84940124D01*
X127428355Y-84909144D01*
X127986317Y-84595922D01*
X128381942Y-84093020D01*
X128555000Y-83477000D01*
X128555000Y-82677000D01*
X127047000Y-82677000D01*
X126793000Y-82677000D01*
X125285000Y-82677000D01*
X123567440Y-82677000D01*
X123567440Y-81623000D01*
X125285000Y-81623000D01*
X125285000Y-82423000D01*
X126793000Y-82423000D01*
X126793000Y-80279223D01*
X127047000Y-80279223D01*
X127047000Y-82423000D01*
X128555000Y-82423000D01*
X128555000Y-81623000D01*
X128381942Y-81006980D01*
X127986317Y-80504078D01*
X127428355Y-80190856D01*
X127300434Y-80159876D01*
X127047000Y-80279223D01*
X126793000Y-80279223D01*
X126539566Y-80159876D01*
X126411645Y-80190856D01*
X125853683Y-80504078D01*
X125458058Y-81006980D01*
X125285000Y-81623000D01*
X123567440Y-81623000D01*
X123567440Y-81000000D01*
X123499126Y-80656565D01*
X123304586Y-80365414D01*
X123013435Y-80170874D01*
X122670000Y-80102560D01*
X121170000Y-80102560D01*
X120826565Y-80170874D01*
X120535414Y-80365414D01*
X120340874Y-80656565D01*
X120272560Y-81000000D01*
X114043447Y-81000000D01*
X105084647Y-72041200D01*
X113092960Y-72041200D01*
X113092960Y-72791200D01*
X113170789Y-73182471D01*
X113392426Y-73514174D01*
X113724129Y-73735811D01*
X114115400Y-73813640D01*
X116115400Y-73813640D01*
X116506671Y-73735811D01*
X116838374Y-73514174D01*
X117060011Y-73182471D01*
X117137840Y-72791200D01*
X117137840Y-72656386D01*
X119305400Y-72656386D01*
X119305400Y-73456014D01*
X119611404Y-74194773D01*
X120176827Y-74760196D01*
X120915586Y-75066200D01*
X121715214Y-75066200D01*
X122453973Y-74760196D01*
X123019396Y-74194773D01*
X123325400Y-73456014D01*
X123325400Y-72656386D01*
X123019396Y-71917627D01*
X122453973Y-71352204D01*
X121715214Y-71046200D01*
X120915586Y-71046200D01*
X120176827Y-71352204D01*
X119611404Y-71917627D01*
X119305400Y-72656386D01*
X117137840Y-72656386D01*
X117137840Y-72041200D01*
X117060011Y-71649929D01*
X116838374Y-71318226D01*
X116506671Y-71096589D01*
X116115400Y-71018760D01*
X114115400Y-71018760D01*
X113724129Y-71096589D01*
X113392426Y-71318226D01*
X113170789Y-71649929D01*
X113092960Y-72041200D01*
X105084647Y-72041200D01*
X104012411Y-70968965D01*
X103971405Y-70907595D01*
X103728283Y-70745146D01*
X103513888Y-70702500D01*
X103513884Y-70702500D01*
X103441500Y-70688102D01*
X103369116Y-70702500D01*
X94703382Y-70702500D01*
X94479125Y-70366875D01*
X94178714Y-70166147D01*
X94603683Y-69778858D01*
X94849986Y-69254392D01*
X94729319Y-69024500D01*
X93535500Y-69024500D01*
X93535500Y-69044500D01*
X93281500Y-69044500D01*
X93281500Y-69024500D01*
X93261500Y-69024500D01*
X93261500Y-68770500D01*
X93281500Y-68770500D01*
X93281500Y-67577345D01*
X93535500Y-67577345D01*
X93535500Y-68770500D01*
X94729319Y-68770500D01*
X94849986Y-68540608D01*
X94603683Y-68016142D01*
X94175424Y-67625855D01*
X93765390Y-67456024D01*
X93535500Y-67577345D01*
X93281500Y-67577345D01*
X93051610Y-67456024D01*
X92641576Y-67625855D01*
X92213317Y-68016142D01*
X92152343Y-68145978D01*
X91939125Y-67826875D01*
X91447918Y-67498661D01*
X91014756Y-67412500D01*
X90722244Y-67412500D01*
X90289082Y-67498661D01*
X89797875Y-67826875D01*
X89598500Y-68125261D01*
X89399125Y-67826875D01*
X88907918Y-67498661D01*
X88474756Y-67412500D01*
X88182244Y-67412500D01*
X87749082Y-67498661D01*
X87257875Y-67826875D01*
X86929661Y-68318082D01*
X86814408Y-68897500D01*
X86893157Y-69293397D01*
X85281863Y-70904691D01*
X85220496Y-70945695D01*
X85179492Y-71007062D01*
X85179491Y-71007063D01*
X85058046Y-71188818D01*
X85001002Y-71475600D01*
X85015401Y-71547989D01*
X85015400Y-73988188D01*
X84625428Y-73858088D01*
X84175025Y-73889983D01*
X83907048Y-74000983D01*
X83892804Y-74083471D01*
X83853326Y-74043993D01*
X83436166Y-73871200D01*
X82984634Y-73871200D01*
X82575400Y-74040710D01*
X82166166Y-73871200D01*
X81714634Y-73871200D01*
X81305400Y-74040710D01*
X80896166Y-73871200D01*
X80444634Y-73871200D01*
X80035400Y-74040710D01*
X79626166Y-73871200D01*
X79174634Y-73871200D01*
X78765400Y-74040710D01*
X78356166Y-73871200D01*
X77904634Y-73871200D01*
X77495400Y-74040710D01*
X77086166Y-73871200D01*
X76634634Y-73871200D01*
X76225400Y-74040710D01*
X75816166Y-73871200D01*
X75364634Y-73871200D01*
X74955400Y-74040710D01*
X74546166Y-73871200D01*
X74094634Y-73871200D01*
X73685400Y-74040710D01*
X73276166Y-73871200D01*
X72824634Y-73871200D01*
X72415400Y-74040710D01*
X72006166Y-73871200D01*
X71554634Y-73871200D01*
X71145400Y-74040710D01*
X70736166Y-73871200D01*
X70284634Y-73871200D01*
X69875400Y-74040710D01*
X69466166Y-73871200D01*
X69014634Y-73871200D01*
X68597474Y-74043993D01*
X68557996Y-74083471D01*
X68543752Y-74000983D01*
X68115428Y-73858088D01*
X67665025Y-73889983D01*
X67397048Y-74000983D01*
X67359901Y-74216096D01*
X50598073Y-74216096D01*
X50619396Y-74194773D01*
X50925400Y-73456014D01*
X50925400Y-72656386D01*
X50670582Y-72041200D01*
X53092960Y-72041200D01*
X53092960Y-72791200D01*
X53170789Y-73182471D01*
X53392426Y-73514174D01*
X53724129Y-73735811D01*
X54115400Y-73813640D01*
X56115400Y-73813640D01*
X56506671Y-73735811D01*
X56838374Y-73514174D01*
X57060011Y-73182471D01*
X57137840Y-72791200D01*
X57137840Y-72041200D01*
X57060011Y-71649929D01*
X56838374Y-71318226D01*
X56506671Y-71096589D01*
X56115400Y-71018760D01*
X54115400Y-71018760D01*
X53724129Y-71096589D01*
X53392426Y-71318226D01*
X53170789Y-71649929D01*
X53092960Y-72041200D01*
X50670582Y-72041200D01*
X50619396Y-71917627D01*
X50053973Y-71352204D01*
X49315214Y-71046200D01*
X48515586Y-71046200D01*
X47776827Y-71352204D01*
X47211404Y-71917627D01*
X46905400Y-72656386D01*
X46480000Y-72656386D01*
X46480000Y-64208526D01*
X91573400Y-64208526D01*
X91573400Y-64620274D01*
X91730969Y-65000680D01*
X91771835Y-65041546D01*
X91675000Y-65275326D01*
X91675000Y-65687074D01*
X91832569Y-66067480D01*
X92123720Y-66358631D01*
X92504126Y-66516200D01*
X92915874Y-66516200D01*
X93296280Y-66358631D01*
X93438711Y-66216200D01*
X93941414Y-66216200D01*
X94013798Y-66230598D01*
X94086182Y-66216200D01*
X94086186Y-66216200D01*
X94300581Y-66173554D01*
X94543703Y-66011105D01*
X94584709Y-65949735D01*
X95208318Y-65326126D01*
X100819000Y-65326126D01*
X100819000Y-65737874D01*
X100976569Y-66118280D01*
X101267720Y-66409431D01*
X101648126Y-66567000D01*
X102059874Y-66567000D01*
X102440280Y-66409431D01*
X102582711Y-66267000D01*
X109761289Y-66267000D01*
X109903720Y-66409431D01*
X110284126Y-66567000D01*
X110695874Y-66567000D01*
X111076280Y-66409431D01*
X111367431Y-66118280D01*
X111525000Y-65737874D01*
X111525000Y-65326126D01*
X111367431Y-64945720D01*
X111076280Y-64654569D01*
X110695874Y-64497000D01*
X110284126Y-64497000D01*
X109903720Y-64654569D01*
X109761289Y-64797000D01*
X102582711Y-64797000D01*
X102440280Y-64654569D01*
X102059874Y-64497000D01*
X101648126Y-64497000D01*
X101267720Y-64654569D01*
X100976569Y-64945720D01*
X100819000Y-65326126D01*
X95208318Y-65326126D01*
X97134548Y-63399897D01*
X97195915Y-63358893D01*
X97358364Y-63115771D01*
X97401010Y-62901376D01*
X97401010Y-62901373D01*
X97415408Y-62828989D01*
X97406883Y-62786126D01*
X107677000Y-62786126D01*
X107677000Y-63197874D01*
X107834569Y-63578280D01*
X108125720Y-63869431D01*
X108506126Y-64027000D01*
X108917874Y-64027000D01*
X109298280Y-63869431D01*
X109440711Y-63727000D01*
X109761289Y-63727000D01*
X109903720Y-63869431D01*
X110284126Y-64027000D01*
X110695874Y-64027000D01*
X111076280Y-63869431D01*
X111367431Y-63578280D01*
X111525000Y-63197874D01*
X111525000Y-62786126D01*
X111367431Y-62405720D01*
X111076280Y-62114569D01*
X110695874Y-61957000D01*
X110284126Y-61957000D01*
X109903720Y-62114569D01*
X109761289Y-62257000D01*
X109440711Y-62257000D01*
X109298280Y-62114569D01*
X108917874Y-61957000D01*
X108506126Y-61957000D01*
X108125720Y-62114569D01*
X107834569Y-62405720D01*
X107677000Y-62786126D01*
X97406883Y-62786126D01*
X97401010Y-62756605D01*
X97401010Y-60483436D01*
X99612725Y-58271721D01*
X99706569Y-58498280D01*
X99997720Y-58789431D01*
X100378126Y-58947000D01*
X100789874Y-58947000D01*
X101170280Y-58789431D01*
X101461431Y-58498280D01*
X101619000Y-58117874D01*
X101619000Y-57916446D01*
X102874447Y-56661000D01*
X103075874Y-56661000D01*
X103456280Y-56503431D01*
X103747431Y-56212280D01*
X103905000Y-55831874D01*
X103905000Y-55420126D01*
X103747431Y-55039720D01*
X103508211Y-54800500D01*
X103747431Y-54561280D01*
X103905000Y-54180874D01*
X103905000Y-53769126D01*
X103747431Y-53388720D01*
X103698711Y-53340000D01*
X103874431Y-53164280D01*
X104032000Y-52783874D01*
X104032000Y-52711936D01*
X104061126Y-52724000D01*
X104472874Y-52724000D01*
X104853280Y-52566431D01*
X105144431Y-52275280D01*
X105302000Y-51894874D01*
X105302000Y-51483126D01*
X105144431Y-51102720D01*
X104853280Y-50811569D01*
X104472874Y-50654000D01*
X104061126Y-50654000D01*
X103680720Y-50811569D01*
X103538289Y-50954000D01*
X102909711Y-50954000D01*
X103112431Y-50751280D01*
X103270000Y-50370874D01*
X103270000Y-49959126D01*
X103112431Y-49578720D01*
X102821280Y-49287569D01*
X102440874Y-49130000D01*
X102029126Y-49130000D01*
X101648720Y-49287569D01*
X101357569Y-49578720D01*
X101200000Y-49959126D01*
X101200000Y-50160553D01*
X99309554Y-52051000D01*
X99108126Y-52051000D01*
X98727720Y-52208569D01*
X98436569Y-52499720D01*
X98279000Y-52880126D01*
X98279000Y-53081553D01*
X94476665Y-56883889D01*
X94415295Y-56924895D01*
X94252846Y-57168018D01*
X94210200Y-57382413D01*
X94210200Y-57382416D01*
X94195802Y-57454800D01*
X94210200Y-57527184D01*
X94210201Y-61234496D01*
X94210201Y-61653688D01*
X94067769Y-61796120D01*
X93910200Y-62176526D01*
X93910200Y-62566600D01*
X93875726Y-62566600D01*
X93495320Y-62724169D01*
X93204169Y-63015320D01*
X93046600Y-63395726D01*
X93046600Y-63475632D01*
X92814274Y-63379400D01*
X92402526Y-63379400D01*
X92022120Y-63536969D01*
X91730969Y-63828120D01*
X91573400Y-64208526D01*
X46480000Y-64208526D01*
X46480000Y-55501131D01*
X68311805Y-55501131D01*
X68311805Y-55912879D01*
X68469374Y-56293285D01*
X68760525Y-56584436D01*
X69140931Y-56742005D01*
X69552679Y-56742005D01*
X69933085Y-56584436D01*
X70075516Y-56442005D01*
X72850284Y-56442005D01*
X72992715Y-56584436D01*
X73373121Y-56742005D01*
X73784869Y-56742005D01*
X74165275Y-56584436D01*
X74456426Y-56293285D01*
X74613995Y-55912879D01*
X74613995Y-55501131D01*
X74456426Y-55120725D01*
X74165275Y-54829574D01*
X73784869Y-54672005D01*
X73373121Y-54672005D01*
X72992715Y-54829574D01*
X72850284Y-54972005D01*
X70075516Y-54972005D01*
X69933085Y-54829574D01*
X69552679Y-54672005D01*
X69140931Y-54672005D01*
X68760525Y-54829574D01*
X68469374Y-55120725D01*
X68311805Y-55501131D01*
X46480000Y-55501131D01*
X46480000Y-49781326D01*
X73082200Y-49781326D01*
X73082200Y-50193074D01*
X73239769Y-50573480D01*
X73530920Y-50864631D01*
X73911326Y-51022200D01*
X74323074Y-51022200D01*
X74703480Y-50864631D01*
X74947511Y-50620600D01*
X75411644Y-50620600D01*
X75317400Y-50848126D01*
X75317400Y-51259874D01*
X75474969Y-51640280D01*
X75766120Y-51931431D01*
X76146526Y-52089000D01*
X76558274Y-52089000D01*
X76938680Y-51931431D01*
X77081111Y-51789000D01*
X89594277Y-51789000D01*
X89685908Y-51880631D01*
X90066314Y-52038200D01*
X90478062Y-52038200D01*
X90858468Y-51880631D01*
X91149619Y-51589480D01*
X91307188Y-51209074D01*
X91307188Y-50797326D01*
X91149619Y-50416920D01*
X91007188Y-50274489D01*
X91007188Y-49346807D01*
X92299869Y-48054126D01*
X99803000Y-48054126D01*
X99803000Y-48465874D01*
X99960569Y-48846280D01*
X100251720Y-49137431D01*
X100632126Y-49295000D01*
X101043874Y-49295000D01*
X101424280Y-49137431D01*
X101566711Y-48995000D01*
X119413289Y-48995000D01*
X119555720Y-49137431D01*
X119936126Y-49295000D01*
X120347874Y-49295000D01*
X120728280Y-49137431D01*
X121019431Y-48846280D01*
X121177000Y-48465874D01*
X121177000Y-48054126D01*
X121019431Y-47673720D01*
X120728280Y-47382569D01*
X120347874Y-47225000D01*
X119936126Y-47225000D01*
X119555720Y-47382569D01*
X119413289Y-47525000D01*
X101566711Y-47525000D01*
X101424280Y-47382569D01*
X101043874Y-47225000D01*
X100632126Y-47225000D01*
X100251720Y-47382569D01*
X99960569Y-47673720D01*
X99803000Y-48054126D01*
X92299869Y-48054126D01*
X92938596Y-47415400D01*
X93140023Y-47415400D01*
X93520429Y-47257831D01*
X93811580Y-46966680D01*
X93969149Y-46586274D01*
X93969149Y-46174526D01*
X93811580Y-45794120D01*
X93785586Y-45768126D01*
X114281000Y-45768126D01*
X114281000Y-46179874D01*
X114438569Y-46560280D01*
X114729720Y-46851431D01*
X115110126Y-47009000D01*
X115521874Y-47009000D01*
X115902280Y-46851431D01*
X116044711Y-46709000D01*
X120302289Y-46709000D01*
X120444720Y-46851431D01*
X120825126Y-47009000D01*
X121236874Y-47009000D01*
X121617280Y-46851431D01*
X121908431Y-46560280D01*
X122066000Y-46179874D01*
X122066000Y-45768126D01*
X121908431Y-45387720D01*
X121617280Y-45096569D01*
X121236874Y-44939000D01*
X120825126Y-44939000D01*
X120444720Y-45096569D01*
X120302289Y-45239000D01*
X116044711Y-45239000D01*
X115902280Y-45096569D01*
X115521874Y-44939000D01*
X115110126Y-44939000D01*
X114729720Y-45096569D01*
X114438569Y-45387720D01*
X114281000Y-45768126D01*
X93785586Y-45768126D01*
X93520429Y-45502969D01*
X93140023Y-45345400D01*
X92728275Y-45345400D01*
X92347869Y-45502969D01*
X92056718Y-45794120D01*
X91899149Y-46174526D01*
X91899149Y-46375953D01*
X89803651Y-48471452D01*
X89742284Y-48512456D01*
X89701280Y-48573823D01*
X89701279Y-48573824D01*
X89579834Y-48755579D01*
X89522790Y-49042361D01*
X89537189Y-49114750D01*
X89537188Y-50274489D01*
X89492677Y-50319000D01*
X87249956Y-50319000D01*
X87344200Y-50091474D01*
X87344200Y-49679726D01*
X87186631Y-49299320D01*
X86895480Y-49008169D01*
X86515074Y-48850600D01*
X86103326Y-48850600D01*
X85722920Y-49008169D01*
X85580489Y-49150600D01*
X74744311Y-49150600D01*
X74703480Y-49109769D01*
X74323074Y-48952200D01*
X73911326Y-48952200D01*
X73530920Y-49109769D01*
X73239769Y-49400920D01*
X73082200Y-49781326D01*
X46480000Y-49781326D01*
X46480000Y-47698526D01*
X73056800Y-47698526D01*
X73056800Y-48110274D01*
X73214369Y-48490680D01*
X73505520Y-48781831D01*
X73885926Y-48939400D01*
X74297674Y-48939400D01*
X74678080Y-48781831D01*
X74820511Y-48639400D01*
X84107289Y-48639400D01*
X84249720Y-48781831D01*
X84630126Y-48939400D01*
X85041874Y-48939400D01*
X85422280Y-48781831D01*
X85713431Y-48490680D01*
X85871000Y-48110274D01*
X85871000Y-47698526D01*
X85713431Y-47318120D01*
X85422280Y-47026969D01*
X85041874Y-46869400D01*
X84630126Y-46869400D01*
X84249720Y-47026969D01*
X84107289Y-47169400D01*
X74820511Y-47169400D01*
X74678080Y-47026969D01*
X74297674Y-46869400D01*
X73885926Y-46869400D01*
X73505520Y-47026969D01*
X73214369Y-47318120D01*
X73056800Y-47698526D01*
X46480000Y-47698526D01*
X46480000Y-44548926D01*
X74352200Y-44548926D01*
X74352200Y-44960674D01*
X74509769Y-45341080D01*
X74800920Y-45632231D01*
X75181326Y-45789800D01*
X75593074Y-45789800D01*
X75973480Y-45632231D01*
X76115911Y-45489800D01*
X76436489Y-45489800D01*
X76578920Y-45632231D01*
X76959326Y-45789800D01*
X77371074Y-45789800D01*
X77751480Y-45632231D01*
X78042631Y-45341080D01*
X78200200Y-44960674D01*
X78200200Y-44548926D01*
X78042631Y-44168520D01*
X77751480Y-43877369D01*
X77371074Y-43719800D01*
X76959326Y-43719800D01*
X76578920Y-43877369D01*
X76436489Y-44019800D01*
X76115911Y-44019800D01*
X75973480Y-43877369D01*
X75593074Y-43719800D01*
X75181326Y-43719800D01*
X74800920Y-43877369D01*
X74509769Y-44168520D01*
X74352200Y-44548926D01*
X46480000Y-44548926D01*
X46480000Y-42974126D01*
X83801000Y-42974126D01*
X83801000Y-43385874D01*
X83958569Y-43766280D01*
X84249720Y-44057431D01*
X84630126Y-44215000D01*
X85041874Y-44215000D01*
X85422280Y-44057431D01*
X85564711Y-43915000D01*
X103411289Y-43915000D01*
X103553720Y-44057431D01*
X103934126Y-44215000D01*
X104345874Y-44215000D01*
X104726280Y-44057431D01*
X105017431Y-43766280D01*
X105175000Y-43385874D01*
X105175000Y-42974126D01*
X105017431Y-42593720D01*
X104726280Y-42302569D01*
X104345874Y-42145000D01*
X104159000Y-42145000D01*
X104159000Y-41958126D01*
X104001431Y-41577720D01*
X103710280Y-41286569D01*
X103329874Y-41129000D01*
X102918126Y-41129000D01*
X102537720Y-41286569D01*
X102395289Y-41429000D01*
X87088711Y-41429000D01*
X86946280Y-41286569D01*
X86565874Y-41129000D01*
X86154126Y-41129000D01*
X85773720Y-41286569D01*
X85482569Y-41577720D01*
X85325000Y-41958126D01*
X85325000Y-42262274D01*
X85041874Y-42145000D01*
X84630126Y-42145000D01*
X84249720Y-42302569D01*
X83958569Y-42593720D01*
X83801000Y-42974126D01*
X46480000Y-42974126D01*
X46480000Y-38358801D01*
X49259803Y-35579000D01*
X49425874Y-35579000D01*
X49806280Y-35421431D01*
X50097431Y-35130280D01*
X50255000Y-34749874D01*
X50255000Y-34338126D01*
X50097431Y-33957720D01*
X49806280Y-33666569D01*
X49425874Y-33509000D01*
X49014126Y-33509000D01*
X48633720Y-33666569D01*
X48342569Y-33957720D01*
X48185000Y-34338126D01*
X48185000Y-34504197D01*
X45235530Y-37453669D01*
X45172071Y-37496071D01*
X45004096Y-37747464D01*
X44960000Y-37969149D01*
X44960000Y-37969153D01*
X44945112Y-38044000D01*
X44960000Y-38118847D01*
X44960001Y-79140043D01*
X44341588Y-79396199D01*
X43783199Y-79954588D01*
X43481000Y-80684159D01*
X42851000Y-80684159D01*
X42548801Y-79954588D01*
X41990412Y-79396199D01*
X41260841Y-79094000D01*
X40471159Y-79094000D01*
X39741588Y-79396199D01*
X39183199Y-79954588D01*
X38881000Y-80684159D01*
X38175000Y-80684159D01*
X38175000Y-37865024D01*
X38342654Y-37977047D01*
X38659139Y-38040000D01*
X39572861Y-38040000D01*
X39889346Y-37977047D01*
X40248241Y-37737241D01*
X40488047Y-37378346D01*
X40572256Y-36955000D01*
X40488047Y-36531654D01*
X40248241Y-36172759D01*
X39889346Y-35932953D01*
X39572861Y-35870000D01*
X38659139Y-35870000D01*
X38342654Y-35932953D01*
X38175000Y-36044976D01*
X38175000Y-33068126D01*
X84626500Y-33068126D01*
X84626500Y-33479874D01*
X84784069Y-33860280D01*
X85075220Y-34151431D01*
X85455626Y-34309000D01*
X85867374Y-34309000D01*
X86247780Y-34151431D01*
X86364811Y-34034400D01*
X88399889Y-34034400D01*
X88542320Y-34176831D01*
X88922726Y-34334400D01*
X89334474Y-34334400D01*
X89714880Y-34176831D01*
X90006031Y-33885680D01*
X90163600Y-33505274D01*
X90163600Y-33093526D01*
X90006031Y-32713120D01*
X89714880Y-32421969D01*
X89334474Y-32264400D01*
X88922726Y-32264400D01*
X88542320Y-32421969D01*
X88399889Y-32564400D01*
X86415611Y-32564400D01*
X86247780Y-32396569D01*
X85867374Y-32239000D01*
X85455626Y-32239000D01*
X85075220Y-32396569D01*
X84784069Y-32687720D01*
X84626500Y-33068126D01*
X38175000Y-33068126D01*
X38175000Y-31265024D01*
X38342654Y-31377047D01*
X38659139Y-31440000D01*
X39572861Y-31440000D01*
X39889346Y-31377047D01*
X40248241Y-31137241D01*
X40488047Y-30778346D01*
X40572256Y-30355000D01*
X40488047Y-29931654D01*
X40275615Y-29613726D01*
X121139000Y-29613726D01*
X121139000Y-30025474D01*
X121296569Y-30405880D01*
X121439001Y-30548312D01*
X121439000Y-32951689D01*
X121296569Y-33094120D01*
X121139000Y-33474526D01*
X121139000Y-33886274D01*
X121296569Y-34266680D01*
X121587720Y-34557831D01*
X121968126Y-34715400D01*
X122379874Y-34715400D01*
X122760280Y-34557831D01*
X123051431Y-34266680D01*
X123209000Y-33886274D01*
X123209000Y-33474526D01*
X123051431Y-33094120D01*
X122909000Y-32951689D01*
X122909000Y-30548311D01*
X123051431Y-30405880D01*
X123072986Y-30353842D01*
X123309617Y-30511954D01*
X123524012Y-30554600D01*
X123668788Y-30554600D01*
X123883183Y-30511954D01*
X124126305Y-30349505D01*
X124288754Y-30106383D01*
X124345799Y-29819600D01*
X124288754Y-29532817D01*
X124126305Y-29289695D01*
X123883183Y-29127246D01*
X123668788Y-29084600D01*
X123524012Y-29084600D01*
X123309617Y-29127246D01*
X123072986Y-29285358D01*
X123051431Y-29233320D01*
X122760280Y-28942169D01*
X122379874Y-28784600D01*
X121968126Y-28784600D01*
X121587720Y-28942169D01*
X121296569Y-29233320D01*
X121139000Y-29613726D01*
X40275615Y-29613726D01*
X40248241Y-29572759D01*
X39889346Y-29332953D01*
X39572861Y-29270000D01*
X38659139Y-29270000D01*
X38342654Y-29332953D01*
X38175000Y-29444976D01*
X38175000Y-27988126D01*
X72879000Y-27988126D01*
X72879000Y-28399874D01*
X73036569Y-28780280D01*
X73327720Y-29071431D01*
X73708126Y-29229000D01*
X74119874Y-29229000D01*
X74500280Y-29071431D01*
X74791431Y-28780280D01*
X74949000Y-28399874D01*
X74949000Y-27988126D01*
X74791431Y-27607720D01*
X74500280Y-27316569D01*
X74119874Y-27159000D01*
X73708126Y-27159000D01*
X73327720Y-27316569D01*
X73036569Y-27607720D01*
X72879000Y-27988126D01*
X38175000Y-27988126D01*
X38175000Y-14705000D01*
X44732919Y-14705000D01*
X43729483Y-15120637D01*
X43729483Y-15120637D01*
G37*
X43729483Y-15120637D02*
X42425637Y-16424483D01*
X41720000Y-18128041D01*
X41720000Y-19971959D01*
X42425637Y-21675517D01*
X43729483Y-22979363D01*
X45433041Y-23685000D01*
X47276959Y-23685000D01*
X48980517Y-22979363D01*
X50284363Y-21675517D01*
X50990000Y-19971959D01*
X50990000Y-18128041D01*
X50284363Y-16424483D01*
X48980517Y-15120637D01*
X47977081Y-14705000D01*
X122202919Y-14705000D01*
X121199483Y-15120637D01*
X119895637Y-16424483D01*
X119190000Y-18128041D01*
X119190000Y-19971959D01*
X119895637Y-21675517D01*
X121199483Y-22979363D01*
X122903041Y-23685000D01*
X124746959Y-23685000D01*
X126450517Y-22979363D01*
X127754363Y-21675517D01*
X128460000Y-19971959D01*
X128460000Y-18128041D01*
X127754363Y-16424483D01*
X126450517Y-15120637D01*
X125447081Y-14705000D01*
X131751001Y-14705000D01*
X131751001Y-28891482D01*
X129568079Y-28891482D01*
X129519478Y-28901149D01*
X129478276Y-28928679D01*
X129450746Y-28969881D01*
X129441079Y-29018482D01*
X129441079Y-31177482D01*
X129450746Y-31226083D01*
X129478276Y-31267285D01*
X129519478Y-31294815D01*
X129568079Y-31304482D01*
X131751001Y-31304482D01*
X131751001Y-32193482D01*
X126520079Y-32193482D01*
X126471478Y-32203149D01*
X126430276Y-32230679D01*
X126402746Y-32271881D01*
X126393079Y-32320482D01*
X126393079Y-36384482D01*
X126403855Y-36435678D01*
X126432294Y-36476258D01*
X126474097Y-36502865D01*
X126522901Y-36511451D01*
X131751001Y-36395271D01*
X131751000Y-92000000D01*
X38175000Y-92000000D01*
X38175000Y-85438041D01*
X55055000Y-85438041D01*
X55055000Y-87281959D01*
X55760637Y-88985517D01*
X57064483Y-90289363D01*
X58768041Y-90995000D01*
X60611959Y-90995000D01*
X62315517Y-90289363D01*
X63619363Y-88985517D01*
X63806065Y-88534778D01*
X68255000Y-88534778D01*
X68255000Y-89185222D01*
X68503914Y-89786153D01*
X68963847Y-90246086D01*
X69564778Y-90495000D01*
X70215222Y-90495000D01*
X70816153Y-90246086D01*
X71276086Y-89786153D01*
X71525000Y-89185222D01*
X71525000Y-88534778D01*
X73255000Y-88534778D01*
X73255000Y-89185222D01*
X73503914Y-89786153D01*
X73963847Y-90246086D01*
X74564778Y-90495000D01*
X75215222Y-90495000D01*
X75816153Y-90246086D01*
X76276086Y-89786153D01*
X76525000Y-89185222D01*
X76525000Y-88534778D01*
X80955000Y-88534778D01*
X80955000Y-89185222D01*
X81203914Y-89786153D01*
X81663847Y-90246086D01*
X82264778Y-90495000D01*
X82915222Y-90495000D01*
X83516153Y-90246086D01*
X83976086Y-89786153D01*
X84225000Y-89185222D01*
X84225000Y-88534778D01*
X85955000Y-88534778D01*
X85955000Y-89185222D01*
X86203914Y-89786153D01*
X86663847Y-90246086D01*
X87264778Y-90495000D01*
X87915222Y-90495000D01*
X88516153Y-90246086D01*
X88976086Y-89786153D01*
X89225000Y-89185222D01*
X89225000Y-88534778D01*
X93655000Y-88534778D01*
X93655000Y-89185222D01*
X93903914Y-89786153D01*
X94363847Y-90246086D01*
X94964778Y-90495000D01*
X95615222Y-90495000D01*
X96216153Y-90246086D01*
X96676086Y-89786153D01*
X96925000Y-89185222D01*
X96925000Y-88534778D01*
X98655000Y-88534778D01*
X98655000Y-89185222D01*
X98903914Y-89786153D01*
X99363847Y-90246086D01*
X99964778Y-90495000D01*
X100615222Y-90495000D01*
X101216153Y-90246086D01*
X101449707Y-90012532D01*
X109557073Y-90012532D01*
X109655736Y-90279387D01*
X110265461Y-90505908D01*
X110915460Y-90481856D01*
X111404264Y-90279387D01*
X111502927Y-90012532D01*
X110530000Y-89039605D01*
X109557073Y-90012532D01*
X101449707Y-90012532D01*
X101676086Y-89786153D01*
X101925000Y-89185222D01*
X101925000Y-88595461D01*
X108884092Y-88595461D01*
X108908144Y-89245460D01*
X109110613Y-89734264D01*
X109377468Y-89832927D01*
X110350395Y-88860000D01*
X110709605Y-88860000D01*
X111682532Y-89832927D01*
X111949387Y-89734264D01*
X112175908Y-89124539D01*
X112154085Y-88534778D01*
X113895000Y-88534778D01*
X113895000Y-89185222D01*
X114143914Y-89786153D01*
X114603847Y-90246086D01*
X115204778Y-90495000D01*
X115855222Y-90495000D01*
X116456153Y-90246086D01*
X116916086Y-89786153D01*
X117165000Y-89185222D01*
X117165000Y-88534778D01*
X116916086Y-87933847D01*
X116456153Y-87473914D01*
X115855222Y-87225000D01*
X115204778Y-87225000D01*
X114603847Y-87473914D01*
X114143914Y-87933847D01*
X113895000Y-88534778D01*
X112154085Y-88534778D01*
X112151856Y-88474540D01*
X111949387Y-87985736D01*
X111682532Y-87887073D01*
X110709605Y-88860000D01*
X110350395Y-88860000D01*
X109377468Y-87887073D01*
X109110613Y-87985736D01*
X108884092Y-88595461D01*
X101925000Y-88595461D01*
X101925000Y-88534778D01*
X101676086Y-87933847D01*
X101449707Y-87707468D01*
X109557073Y-87707468D01*
X110530000Y-88680395D01*
X111502927Y-87707468D01*
X111404264Y-87440613D01*
X110794539Y-87214092D01*
X110144540Y-87238144D01*
X109655736Y-87440613D01*
X109557073Y-87707468D01*
X101449707Y-87707468D01*
X101216153Y-87473914D01*
X100615222Y-87225000D01*
X99964778Y-87225000D01*
X99363847Y-87473914D01*
X98903914Y-87933847D01*
X98655000Y-88534778D01*
X96925000Y-88534778D01*
X96676086Y-87933847D01*
X96216153Y-87473914D01*
X95615222Y-87225000D01*
X94964778Y-87225000D01*
X94363847Y-87473914D01*
X93903914Y-87933847D01*
X93655000Y-88534778D01*
X89225000Y-88534778D01*
X88976086Y-87933847D01*
X88516153Y-87473914D01*
X87915222Y-87225000D01*
X87264778Y-87225000D01*
X86663847Y-87473914D01*
X86203914Y-87933847D01*
X85955000Y-88534778D01*
X84225000Y-88534778D01*
X83976086Y-87933847D01*
X83516153Y-87473914D01*
X82915222Y-87225000D01*
X82264778Y-87225000D01*
X81663847Y-87473914D01*
X81203914Y-87933847D01*
X80955000Y-88534778D01*
X76525000Y-88534778D01*
X76276086Y-87933847D01*
X75816153Y-87473914D01*
X75215222Y-87225000D01*
X74564778Y-87225000D01*
X73963847Y-87473914D01*
X73503914Y-87933847D01*
X73255000Y-88534778D01*
X71525000Y-88534778D01*
X71276086Y-87933847D01*
X70816153Y-87473914D01*
X70215222Y-87225000D01*
X69564778Y-87225000D01*
X68963847Y-87473914D01*
X68503914Y-87933847D01*
X68255000Y-88534778D01*
X63806065Y-88534778D01*
X64325000Y-87281959D01*
X64325000Y-85438041D01*
X63619363Y-83734483D01*
X63419658Y-83534778D01*
X68255000Y-83534778D01*
X68255000Y-84185222D01*
X68503914Y-84786153D01*
X68963847Y-85246086D01*
X69564778Y-85495000D01*
X70215222Y-85495000D01*
X70816153Y-85246086D01*
X71276086Y-84786153D01*
X71525000Y-84185222D01*
X71525000Y-83534778D01*
X73255000Y-83534778D01*
X73255000Y-84185222D01*
X73503914Y-84786153D01*
X73963847Y-85246086D01*
X74564778Y-85495000D01*
X75215222Y-85495000D01*
X75816153Y-85246086D01*
X76276086Y-84786153D01*
X76525000Y-84185222D01*
X76525000Y-83534778D01*
X80955000Y-83534778D01*
X80955000Y-84185222D01*
X81203914Y-84786153D01*
X81663847Y-85246086D01*
X82264778Y-85495000D01*
X82915222Y-85495000D01*
X83516153Y-85246086D01*
X83976086Y-84786153D01*
X84225000Y-84185222D01*
X84225000Y-83534778D01*
X85955000Y-83534778D01*
X85955000Y-84185222D01*
X86203914Y-84786153D01*
X86663847Y-85246086D01*
X87264778Y-85495000D01*
X87915222Y-85495000D01*
X88516153Y-85246086D01*
X88976086Y-84786153D01*
X89225000Y-84185222D01*
X89225000Y-83534778D01*
X93655000Y-83534778D01*
X93655000Y-84185222D01*
X93903914Y-84786153D01*
X94363847Y-85246086D01*
X94964778Y-85495000D01*
X95615222Y-85495000D01*
X96216153Y-85246086D01*
X96676086Y-84786153D01*
X96925000Y-84185222D01*
X96925000Y-83534778D01*
X98655000Y-83534778D01*
X98655000Y-84185222D01*
X98903914Y-84786153D01*
X99363847Y-85246086D01*
X99964778Y-85495000D01*
X100615222Y-85495000D01*
X101216153Y-85246086D01*
X101449707Y-85012532D01*
X109557073Y-85012532D01*
X109655736Y-85279387D01*
X110265461Y-85505908D01*
X110915460Y-85481856D01*
X111404264Y-85279387D01*
X111502927Y-85012532D01*
X110530000Y-84039605D01*
X109557073Y-85012532D01*
X101449707Y-85012532D01*
X101676086Y-84786153D01*
X101925000Y-84185222D01*
X101925000Y-83595461D01*
X108884092Y-83595461D01*
X108908144Y-84245460D01*
X109110613Y-84734264D01*
X109377468Y-84832927D01*
X110350395Y-83860000D01*
X110709605Y-83860000D01*
X111682532Y-84832927D01*
X111949387Y-84734264D01*
X112175908Y-84124539D01*
X112151856Y-83474540D01*
X111949387Y-82985736D01*
X111682532Y-82887073D01*
X110709605Y-83860000D01*
X110350395Y-83860000D01*
X109377468Y-82887073D01*
X109110613Y-82985736D01*
X108884092Y-83595461D01*
X101925000Y-83595461D01*
X101925000Y-83534778D01*
X101676086Y-82933847D01*
X101449707Y-82707468D01*
X109557073Y-82707468D01*
X110530000Y-83680395D01*
X111502927Y-82707468D01*
X111404264Y-82440613D01*
X110794539Y-82214092D01*
X110144540Y-82238144D01*
X109655736Y-82440613D01*
X109557073Y-82707468D01*
X101449707Y-82707468D01*
X101216153Y-82473914D01*
X100615222Y-82225000D01*
X99964778Y-82225000D01*
X99363847Y-82473914D01*
X98903914Y-82933847D01*
X98655000Y-83534778D01*
X96925000Y-83534778D01*
X96676086Y-82933847D01*
X96216153Y-82473914D01*
X95615222Y-82225000D01*
X94964778Y-82225000D01*
X94363847Y-82473914D01*
X93903914Y-82933847D01*
X93655000Y-83534778D01*
X89225000Y-83534778D01*
X88976086Y-82933847D01*
X88516153Y-82473914D01*
X87915222Y-82225000D01*
X87264778Y-82225000D01*
X86663847Y-82473914D01*
X86203914Y-82933847D01*
X85955000Y-83534778D01*
X84225000Y-83534778D01*
X83976086Y-82933847D01*
X83516153Y-82473914D01*
X82915222Y-82225000D01*
X82264778Y-82225000D01*
X81663847Y-82473914D01*
X81203914Y-82933847D01*
X80955000Y-83534778D01*
X76525000Y-83534778D01*
X76276086Y-82933847D01*
X75816153Y-82473914D01*
X75215222Y-82225000D01*
X74564778Y-82225000D01*
X73963847Y-82473914D01*
X73503914Y-82933847D01*
X73255000Y-83534778D01*
X71525000Y-83534778D01*
X71276086Y-82933847D01*
X70816153Y-82473914D01*
X70215222Y-82225000D01*
X69564778Y-82225000D01*
X68963847Y-82473914D01*
X68503914Y-82933847D01*
X68255000Y-83534778D01*
X63419658Y-83534778D01*
X62315517Y-82430637D01*
X60611959Y-81725000D01*
X58768041Y-81725000D01*
X57064483Y-82430637D01*
X55760637Y-83734483D01*
X55055000Y-85438041D01*
X38175000Y-85438041D01*
X38175000Y-80684159D01*
X38881000Y-80684159D01*
X38881000Y-81473841D01*
X39183199Y-82203412D01*
X39741588Y-82761801D01*
X40471159Y-83064000D01*
X41260841Y-83064000D01*
X41990412Y-82761801D01*
X42548801Y-82203412D01*
X42851000Y-81473841D01*
X42851000Y-80684159D01*
X43481000Y-80684159D01*
X43481000Y-81473841D01*
X43783199Y-82203412D01*
X44341588Y-82761801D01*
X45071159Y-83064000D01*
X45860841Y-83064000D01*
X46590412Y-82761801D01*
X47148801Y-82203412D01*
X47451000Y-81473841D01*
X47451000Y-80684159D01*
X47148801Y-79954588D01*
X46590412Y-79396199D01*
X46480000Y-79350465D01*
X46480000Y-72656386D01*
X46905400Y-72656386D01*
X46905400Y-73456014D01*
X47211404Y-74194773D01*
X47776827Y-74760196D01*
X48515586Y-75066200D01*
X49315214Y-75066200D01*
X49810195Y-74861172D01*
X66822288Y-74861172D01*
X66854183Y-75311575D01*
X66965183Y-75579552D01*
X67180296Y-75616699D01*
X67790795Y-75006200D01*
X67180296Y-74395701D01*
X66965183Y-74432848D01*
X66822288Y-74861172D01*
X49810195Y-74861172D01*
X50053973Y-74760196D01*
X50598073Y-74216096D01*
X67359901Y-74216096D01*
X67970400Y-74826595D01*
X67984543Y-74812453D01*
X68105400Y-74933310D01*
X68105400Y-75079090D01*
X67984543Y-75199948D01*
X67970400Y-75185805D01*
X67359901Y-75796304D01*
X67397048Y-76011417D01*
X67825372Y-76154312D01*
X68275775Y-76122417D01*
X68543752Y-76011417D01*
X68557996Y-75928929D01*
X68597474Y-75968407D01*
X69014634Y-76141200D01*
X69466166Y-76141200D01*
X69875400Y-75971690D01*
X70284634Y-76141200D01*
X70736166Y-76141200D01*
X71145400Y-75971690D01*
X71554634Y-76141200D01*
X72006166Y-76141200D01*
X72415400Y-75971690D01*
X72824634Y-76141200D01*
X73276166Y-76141200D01*
X73685400Y-75971690D01*
X74094634Y-76141200D01*
X74546166Y-76141200D01*
X74955400Y-75971690D01*
X75364634Y-76141200D01*
X75816166Y-76141200D01*
X76225400Y-75971690D01*
X76634634Y-76141200D01*
X77086166Y-76141200D01*
X77495400Y-75971690D01*
X77904634Y-76141200D01*
X78356166Y-76141200D01*
X78765400Y-75971690D01*
X79174634Y-76141200D01*
X79626166Y-76141200D01*
X80035400Y-75971690D01*
X80444634Y-76141200D01*
X80896166Y-76141200D01*
X81305400Y-75971690D01*
X81714634Y-76141200D01*
X82166166Y-76141200D01*
X82575400Y-75971690D01*
X82984634Y-76141200D01*
X83436166Y-76141200D01*
X83853326Y-75968407D01*
X83892804Y-75928929D01*
X83907048Y-76011417D01*
X84335372Y-76154312D01*
X84785775Y-76122417D01*
X85053752Y-76011417D01*
X85067996Y-75928929D01*
X85107474Y-75968407D01*
X85524634Y-76141200D01*
X85976166Y-76141200D01*
X86385400Y-75971690D01*
X86794634Y-76141200D01*
X87246166Y-76141200D01*
X87655400Y-75971690D01*
X88064634Y-76141200D01*
X88516166Y-76141200D01*
X88925400Y-75971690D01*
X89334634Y-76141200D01*
X89786166Y-76141200D01*
X90195400Y-75971690D01*
X90604634Y-76141200D01*
X91056166Y-76141200D01*
X91465400Y-75971690D01*
X91874634Y-76141200D01*
X92326166Y-76141200D01*
X92735400Y-75971690D01*
X93144634Y-76141200D01*
X93596166Y-76141200D01*
X94005400Y-75971690D01*
X94414634Y-76141200D01*
X94866166Y-76141200D01*
X95275400Y-75971690D01*
X95684634Y-76141200D01*
X96136166Y-76141200D01*
X96545400Y-75971690D01*
X96954634Y-76141200D01*
X97406166Y-76141200D01*
X97815400Y-75971690D01*
X98224634Y-76141200D01*
X98676166Y-76141200D01*
X99085400Y-75971690D01*
X99494634Y-76141200D01*
X99946166Y-76141200D01*
X100355400Y-75971690D01*
X100764634Y-76141200D01*
X101216166Y-76141200D01*
X101625400Y-75971690D01*
X102034634Y-76141200D01*
X102486166Y-76141200D01*
X102903326Y-75968407D01*
X103222607Y-75649126D01*
X103395400Y-75231966D01*
X103395400Y-74780434D01*
X103222607Y-74363274D01*
X102903326Y-74043993D01*
X102486166Y-73871200D01*
X102034634Y-73871200D01*
X101625400Y-74040710D01*
X101216166Y-73871200D01*
X100764634Y-73871200D01*
X100355400Y-74040710D01*
X99946166Y-73871200D01*
X99494634Y-73871200D01*
X99085400Y-74040710D01*
X98676166Y-73871200D01*
X98224634Y-73871200D01*
X97815400Y-74040710D01*
X97406166Y-73871200D01*
X96954634Y-73871200D01*
X96545400Y-74040710D01*
X96136166Y-73871200D01*
X95684634Y-73871200D01*
X95275400Y-74040710D01*
X94866166Y-73871200D01*
X94414634Y-73871200D01*
X94005400Y-74040710D01*
X93596166Y-73871200D01*
X93144634Y-73871200D01*
X92735400Y-74040710D01*
X92326166Y-73871200D01*
X91874634Y-73871200D01*
X91465400Y-74040710D01*
X91056166Y-73871200D01*
X90604634Y-73871200D01*
X90235921Y-74023926D01*
X91337037Y-72922809D01*
X91398405Y-72881805D01*
X91425852Y-72840728D01*
X91447918Y-72836339D01*
X91939125Y-72508125D01*
X92138500Y-72209739D01*
X92337875Y-72508125D01*
X92829082Y-72836339D01*
X93262244Y-72922500D01*
X93554756Y-72922500D01*
X93987918Y-72836339D01*
X94479125Y-72508125D01*
X94703382Y-72172500D01*
X103137054Y-72172500D01*
X114072005Y-83107452D01*
X113895000Y-83534778D01*
X113895000Y-84185222D01*
X114143914Y-84786153D01*
X114603847Y-85246086D01*
X115204778Y-85495000D01*
X115855222Y-85495000D01*
X116456153Y-85246086D01*
X116916086Y-84786153D01*
X117165000Y-84185222D01*
X117165000Y-83534778D01*
X116916086Y-82933847D01*
X116456153Y-82473914D01*
X115855222Y-82225000D01*
X115268447Y-82225000D01*
X114043447Y-81000000D01*
X120272560Y-81000000D01*
X120272560Y-84100000D01*
X120340874Y-84443435D01*
X120535414Y-84734586D01*
X120826565Y-84929126D01*
X121170000Y-84997440D01*
X122670000Y-84997440D01*
X123013435Y-84929126D01*
X123304586Y-84734586D01*
X123499126Y-84443435D01*
X123567440Y-84100000D01*
X123567440Y-82677000D01*
X125285000Y-82677000D01*
X125285000Y-83477000D01*
X125458058Y-84093020D01*
X125853683Y-84595922D01*
X126411645Y-84909144D01*
X126539566Y-84940124D01*
X126793000Y-84820777D01*
X126793000Y-82677000D01*
X127047000Y-82677000D01*
X127047000Y-84820777D01*
X127300434Y-84940124D01*
X127428355Y-84909144D01*
X127986317Y-84595922D01*
X128381942Y-84093020D01*
X128555000Y-83477000D01*
X128555000Y-82677000D01*
X127047000Y-82677000D01*
X126793000Y-82677000D01*
X125285000Y-82677000D01*
X123567440Y-82677000D01*
X123567440Y-81623000D01*
X125285000Y-81623000D01*
X125285000Y-82423000D01*
X126793000Y-82423000D01*
X126793000Y-80279223D01*
X127047000Y-80279223D01*
X127047000Y-82423000D01*
X128555000Y-82423000D01*
X128555000Y-81623000D01*
X128381942Y-81006980D01*
X127986317Y-80504078D01*
X127428355Y-80190856D01*
X127300434Y-80159876D01*
X127047000Y-80279223D01*
X126793000Y-80279223D01*
X126539566Y-80159876D01*
X126411645Y-80190856D01*
X125853683Y-80504078D01*
X125458058Y-81006980D01*
X125285000Y-81623000D01*
X123567440Y-81623000D01*
X123567440Y-81000000D01*
X123499126Y-80656565D01*
X123304586Y-80365414D01*
X123013435Y-80170874D01*
X122670000Y-80102560D01*
X121170000Y-80102560D01*
X120826565Y-80170874D01*
X120535414Y-80365414D01*
X120340874Y-80656565D01*
X120272560Y-81000000D01*
X114043447Y-81000000D01*
X105084647Y-72041200D01*
X113092960Y-72041200D01*
X113092960Y-72791200D01*
X113170789Y-73182471D01*
X113392426Y-73514174D01*
X113724129Y-73735811D01*
X114115400Y-73813640D01*
X116115400Y-73813640D01*
X116506671Y-73735811D01*
X116838374Y-73514174D01*
X117060011Y-73182471D01*
X117137840Y-72791200D01*
X117137840Y-72656386D01*
X119305400Y-72656386D01*
X119305400Y-73456014D01*
X119611404Y-74194773D01*
X120176827Y-74760196D01*
X120915586Y-75066200D01*
X121715214Y-75066200D01*
X122453973Y-74760196D01*
X123019396Y-74194773D01*
X123325400Y-73456014D01*
X123325400Y-72656386D01*
X123019396Y-71917627D01*
X122453973Y-71352204D01*
X121715214Y-71046200D01*
X120915586Y-71046200D01*
X120176827Y-71352204D01*
X119611404Y-71917627D01*
X119305400Y-72656386D01*
X117137840Y-72656386D01*
X117137840Y-72041200D01*
X117060011Y-71649929D01*
X116838374Y-71318226D01*
X116506671Y-71096589D01*
X116115400Y-71018760D01*
X114115400Y-71018760D01*
X113724129Y-71096589D01*
X113392426Y-71318226D01*
X113170789Y-71649929D01*
X113092960Y-72041200D01*
X105084647Y-72041200D01*
X104012411Y-70968965D01*
X103971405Y-70907595D01*
X103728283Y-70745146D01*
X103513888Y-70702500D01*
X103513884Y-70702500D01*
X103441500Y-70688102D01*
X103369116Y-70702500D01*
X94703382Y-70702500D01*
X94479125Y-70366875D01*
X94178714Y-70166147D01*
X94603683Y-69778858D01*
X94849986Y-69254392D01*
X94729319Y-69024500D01*
X93535500Y-69024500D01*
X93535500Y-69044500D01*
X93281500Y-69044500D01*
X93281500Y-69024500D01*
X93261500Y-69024500D01*
X93261500Y-68770500D01*
X93281500Y-68770500D01*
X93281500Y-67577345D01*
X93535500Y-67577345D01*
X93535500Y-68770500D01*
X94729319Y-68770500D01*
X94849986Y-68540608D01*
X94603683Y-68016142D01*
X94175424Y-67625855D01*
X93765390Y-67456024D01*
X93535500Y-67577345D01*
X93281500Y-67577345D01*
X93051610Y-67456024D01*
X92641576Y-67625855D01*
X92213317Y-68016142D01*
X92152343Y-68145978D01*
X91939125Y-67826875D01*
X91447918Y-67498661D01*
X91014756Y-67412500D01*
X90722244Y-67412500D01*
X90289082Y-67498661D01*
X89797875Y-67826875D01*
X89598500Y-68125261D01*
X89399125Y-67826875D01*
X88907918Y-67498661D01*
X88474756Y-67412500D01*
X88182244Y-67412500D01*
X87749082Y-67498661D01*
X87257875Y-67826875D01*
X86929661Y-68318082D01*
X86814408Y-68897500D01*
X86893157Y-69293397D01*
X85281863Y-70904691D01*
X85220496Y-70945695D01*
X85179492Y-71007062D01*
X85179491Y-71007063D01*
X85058046Y-71188818D01*
X85001002Y-71475600D01*
X85015401Y-71547989D01*
X85015400Y-73988188D01*
X84625428Y-73858088D01*
X84175025Y-73889983D01*
X83907048Y-74000983D01*
X83892804Y-74083471D01*
X83853326Y-74043993D01*
X83436166Y-73871200D01*
X82984634Y-73871200D01*
X82575400Y-74040710D01*
X82166166Y-73871200D01*
X81714634Y-73871200D01*
X81305400Y-74040710D01*
X80896166Y-73871200D01*
X80444634Y-73871200D01*
X80035400Y-74040710D01*
X79626166Y-73871200D01*
X79174634Y-73871200D01*
X78765400Y-74040710D01*
X78356166Y-73871200D01*
X77904634Y-73871200D01*
X77495400Y-74040710D01*
X77086166Y-73871200D01*
X76634634Y-73871200D01*
X76225400Y-74040710D01*
X75816166Y-73871200D01*
X75364634Y-73871200D01*
X74955400Y-74040710D01*
X74546166Y-73871200D01*
X74094634Y-73871200D01*
X73685400Y-74040710D01*
X73276166Y-73871200D01*
X72824634Y-73871200D01*
X72415400Y-74040710D01*
X72006166Y-73871200D01*
X71554634Y-73871200D01*
X71145400Y-74040710D01*
X70736166Y-73871200D01*
X70284634Y-73871200D01*
X69875400Y-74040710D01*
X69466166Y-73871200D01*
X69014634Y-73871200D01*
X68597474Y-74043993D01*
X68557996Y-74083471D01*
X68543752Y-74000983D01*
X68115428Y-73858088D01*
X67665025Y-73889983D01*
X67397048Y-74000983D01*
X67359901Y-74216096D01*
X50598073Y-74216096D01*
X50619396Y-74194773D01*
X50925400Y-73456014D01*
X50925400Y-72656386D01*
X50670582Y-72041200D01*
X53092960Y-72041200D01*
X53092960Y-72791200D01*
X53170789Y-73182471D01*
X53392426Y-73514174D01*
X53724129Y-73735811D01*
X54115400Y-73813640D01*
X56115400Y-73813640D01*
X56506671Y-73735811D01*
X56838374Y-73514174D01*
X57060011Y-73182471D01*
X57137840Y-72791200D01*
X57137840Y-72041200D01*
X57060011Y-71649929D01*
X56838374Y-71318226D01*
X56506671Y-71096589D01*
X56115400Y-71018760D01*
X54115400Y-71018760D01*
X53724129Y-71096589D01*
X53392426Y-71318226D01*
X53170789Y-71649929D01*
X53092960Y-72041200D01*
X50670582Y-72041200D01*
X50619396Y-71917627D01*
X50053973Y-71352204D01*
X49315214Y-71046200D01*
X48515586Y-71046200D01*
X47776827Y-71352204D01*
X47211404Y-71917627D01*
X46905400Y-72656386D01*
X46480000Y-72656386D01*
X46480000Y-64208526D01*
X91573400Y-64208526D01*
X91573400Y-64620274D01*
X91730969Y-65000680D01*
X91771835Y-65041546D01*
X91675000Y-65275326D01*
X91675000Y-65687074D01*
X91832569Y-66067480D01*
X92123720Y-66358631D01*
X92504126Y-66516200D01*
X92915874Y-66516200D01*
X93296280Y-66358631D01*
X93438711Y-66216200D01*
X93941414Y-66216200D01*
X94013798Y-66230598D01*
X94086182Y-66216200D01*
X94086186Y-66216200D01*
X94300581Y-66173554D01*
X94543703Y-66011105D01*
X94584709Y-65949735D01*
X95208318Y-65326126D01*
X100819000Y-65326126D01*
X100819000Y-65737874D01*
X100976569Y-66118280D01*
X101267720Y-66409431D01*
X101648126Y-66567000D01*
X102059874Y-66567000D01*
X102440280Y-66409431D01*
X102582711Y-66267000D01*
X109761289Y-66267000D01*
X109903720Y-66409431D01*
X110284126Y-66567000D01*
X110695874Y-66567000D01*
X111076280Y-66409431D01*
X111367431Y-66118280D01*
X111525000Y-65737874D01*
X111525000Y-65326126D01*
X111367431Y-64945720D01*
X111076280Y-64654569D01*
X110695874Y-64497000D01*
X110284126Y-64497000D01*
X109903720Y-64654569D01*
X109761289Y-64797000D01*
X102582711Y-64797000D01*
X102440280Y-64654569D01*
X102059874Y-64497000D01*
X101648126Y-64497000D01*
X101267720Y-64654569D01*
X100976569Y-64945720D01*
X100819000Y-65326126D01*
X95208318Y-65326126D01*
X97134548Y-63399897D01*
X97195915Y-63358893D01*
X97358364Y-63115771D01*
X97401010Y-62901376D01*
X97401010Y-62901373D01*
X97415408Y-62828989D01*
X97406883Y-62786126D01*
X107677000Y-62786126D01*
X107677000Y-63197874D01*
X107834569Y-63578280D01*
X108125720Y-63869431D01*
X108506126Y-64027000D01*
X108917874Y-64027000D01*
X109298280Y-63869431D01*
X109440711Y-63727000D01*
X109761289Y-63727000D01*
X109903720Y-63869431D01*
X110284126Y-64027000D01*
X110695874Y-64027000D01*
X111076280Y-63869431D01*
X111367431Y-63578280D01*
X111525000Y-63197874D01*
X111525000Y-62786126D01*
X111367431Y-62405720D01*
X111076280Y-62114569D01*
X110695874Y-61957000D01*
X110284126Y-61957000D01*
X109903720Y-62114569D01*
X109761289Y-62257000D01*
X109440711Y-62257000D01*
X109298280Y-62114569D01*
X108917874Y-61957000D01*
X108506126Y-61957000D01*
X108125720Y-62114569D01*
X107834569Y-62405720D01*
X107677000Y-62786126D01*
X97406883Y-62786126D01*
X97401010Y-62756605D01*
X97401010Y-60483436D01*
X99612725Y-58271721D01*
X99706569Y-58498280D01*
X99997720Y-58789431D01*
X100378126Y-58947000D01*
X100789874Y-58947000D01*
X101170280Y-58789431D01*
X101461431Y-58498280D01*
X101619000Y-58117874D01*
X101619000Y-57916446D01*
X102874447Y-56661000D01*
X103075874Y-56661000D01*
X103456280Y-56503431D01*
X103747431Y-56212280D01*
X103905000Y-55831874D01*
X103905000Y-55420126D01*
X103747431Y-55039720D01*
X103508211Y-54800500D01*
X103747431Y-54561280D01*
X103905000Y-54180874D01*
X103905000Y-53769126D01*
X103747431Y-53388720D01*
X103698711Y-53340000D01*
X103874431Y-53164280D01*
X104032000Y-52783874D01*
X104032000Y-52711936D01*
X104061126Y-52724000D01*
X104472874Y-52724000D01*
X104853280Y-52566431D01*
X105144431Y-52275280D01*
X105302000Y-51894874D01*
X105302000Y-51483126D01*
X105144431Y-51102720D01*
X104853280Y-50811569D01*
X104472874Y-50654000D01*
X104061126Y-50654000D01*
X103680720Y-50811569D01*
X103538289Y-50954000D01*
X102909711Y-50954000D01*
X103112431Y-50751280D01*
X103270000Y-50370874D01*
X103270000Y-49959126D01*
X103112431Y-49578720D01*
X102821280Y-49287569D01*
X102440874Y-49130000D01*
X102029126Y-49130000D01*
X101648720Y-49287569D01*
X101357569Y-49578720D01*
X101200000Y-49959126D01*
X101200000Y-50160553D01*
X99309554Y-52051000D01*
X99108126Y-52051000D01*
X98727720Y-52208569D01*
X98436569Y-52499720D01*
X98279000Y-52880126D01*
X98279000Y-53081553D01*
X94476665Y-56883889D01*
X94415295Y-56924895D01*
X94252846Y-57168018D01*
X94210200Y-57382413D01*
X94210200Y-57382416D01*
X94195802Y-57454800D01*
X94210200Y-57527184D01*
X94210201Y-61234496D01*
X94210201Y-61653688D01*
X94067769Y-61796120D01*
X93910200Y-62176526D01*
X93910200Y-62566600D01*
X93875726Y-62566600D01*
X93495320Y-62724169D01*
X93204169Y-63015320D01*
X93046600Y-63395726D01*
X93046600Y-63475632D01*
X92814274Y-63379400D01*
X92402526Y-63379400D01*
X92022120Y-63536969D01*
X91730969Y-63828120D01*
X91573400Y-64208526D01*
X46480000Y-64208526D01*
X46480000Y-55501131D01*
X68311805Y-55501131D01*
X68311805Y-55912879D01*
X68469374Y-56293285D01*
X68760525Y-56584436D01*
X69140931Y-56742005D01*
X69552679Y-56742005D01*
X69933085Y-56584436D01*
X70075516Y-56442005D01*
X72850284Y-56442005D01*
X72992715Y-56584436D01*
X73373121Y-56742005D01*
X73784869Y-56742005D01*
X74165275Y-56584436D01*
X74456426Y-56293285D01*
X74613995Y-55912879D01*
X74613995Y-55501131D01*
X74456426Y-55120725D01*
X74165275Y-54829574D01*
X73784869Y-54672005D01*
X73373121Y-54672005D01*
X72992715Y-54829574D01*
X72850284Y-54972005D01*
X70075516Y-54972005D01*
X69933085Y-54829574D01*
X69552679Y-54672005D01*
X69140931Y-54672005D01*
X68760525Y-54829574D01*
X68469374Y-55120725D01*
X68311805Y-55501131D01*
X46480000Y-55501131D01*
X46480000Y-49781326D01*
X73082200Y-49781326D01*
X73082200Y-50193074D01*
X73239769Y-50573480D01*
X73530920Y-50864631D01*
X73911326Y-51022200D01*
X74323074Y-51022200D01*
X74703480Y-50864631D01*
X74947511Y-50620600D01*
X75411644Y-50620600D01*
X75317400Y-50848126D01*
X75317400Y-51259874D01*
X75474969Y-51640280D01*
X75766120Y-51931431D01*
X76146526Y-52089000D01*
X76558274Y-52089000D01*
X76938680Y-51931431D01*
X77081111Y-51789000D01*
X89594277Y-51789000D01*
X89685908Y-51880631D01*
X90066314Y-52038200D01*
X90478062Y-52038200D01*
X90858468Y-51880631D01*
X91149619Y-51589480D01*
X91307188Y-51209074D01*
X91307188Y-50797326D01*
X91149619Y-50416920D01*
X91007188Y-50274489D01*
X91007188Y-49346807D01*
X92299869Y-48054126D01*
X99803000Y-48054126D01*
X99803000Y-48465874D01*
X99960569Y-48846280D01*
X100251720Y-49137431D01*
X100632126Y-49295000D01*
X101043874Y-49295000D01*
X101424280Y-49137431D01*
X101566711Y-48995000D01*
X119413289Y-48995000D01*
X119555720Y-49137431D01*
X119936126Y-49295000D01*
X120347874Y-49295000D01*
X120728280Y-49137431D01*
X121019431Y-48846280D01*
X121177000Y-48465874D01*
X121177000Y-48054126D01*
X121019431Y-47673720D01*
X120728280Y-47382569D01*
X120347874Y-47225000D01*
X119936126Y-47225000D01*
X119555720Y-47382569D01*
X119413289Y-47525000D01*
X101566711Y-47525000D01*
X101424280Y-47382569D01*
X101043874Y-47225000D01*
X100632126Y-47225000D01*
X100251720Y-47382569D01*
X99960569Y-47673720D01*
X99803000Y-48054126D01*
X92299869Y-48054126D01*
X92938596Y-47415400D01*
X93140023Y-47415400D01*
X93520429Y-47257831D01*
X93811580Y-46966680D01*
X93969149Y-46586274D01*
X93969149Y-46174526D01*
X93811580Y-45794120D01*
X93785586Y-45768126D01*
X114281000Y-45768126D01*
X114281000Y-46179874D01*
X114438569Y-46560280D01*
X114729720Y-46851431D01*
X115110126Y-47009000D01*
X115521874Y-47009000D01*
X115902280Y-46851431D01*
X116044711Y-46709000D01*
X120302289Y-46709000D01*
X120444720Y-46851431D01*
X120825126Y-47009000D01*
X121236874Y-47009000D01*
X121617280Y-46851431D01*
X121908431Y-46560280D01*
X122066000Y-46179874D01*
X122066000Y-45768126D01*
X121908431Y-45387720D01*
X121617280Y-45096569D01*
X121236874Y-44939000D01*
X120825126Y-44939000D01*
X120444720Y-45096569D01*
X120302289Y-45239000D01*
X116044711Y-45239000D01*
X115902280Y-45096569D01*
X115521874Y-44939000D01*
X115110126Y-44939000D01*
X114729720Y-45096569D01*
X114438569Y-45387720D01*
X114281000Y-45768126D01*
X93785586Y-45768126D01*
X93520429Y-45502969D01*
X93140023Y-45345400D01*
X92728275Y-45345400D01*
X92347869Y-45502969D01*
X92056718Y-45794120D01*
X91899149Y-46174526D01*
X91899149Y-46375953D01*
X89803651Y-48471452D01*
X89742284Y-48512456D01*
X89701280Y-48573823D01*
X89701279Y-48573824D01*
X89579834Y-48755579D01*
X89522790Y-49042361D01*
X89537189Y-49114750D01*
X89537188Y-50274489D01*
X89492677Y-50319000D01*
X87249956Y-50319000D01*
X87344200Y-50091474D01*
X87344200Y-49679726D01*
X87186631Y-49299320D01*
X86895480Y-49008169D01*
X86515074Y-48850600D01*
X86103326Y-48850600D01*
X85722920Y-49008169D01*
X85580489Y-49150600D01*
X74744311Y-49150600D01*
X74703480Y-49109769D01*
X74323074Y-48952200D01*
X73911326Y-48952200D01*
X73530920Y-49109769D01*
X73239769Y-49400920D01*
X73082200Y-49781326D01*
X46480000Y-49781326D01*
X46480000Y-47698526D01*
X73056800Y-47698526D01*
X73056800Y-48110274D01*
X73214369Y-48490680D01*
X73505520Y-48781831D01*
X73885926Y-48939400D01*
X74297674Y-48939400D01*
X74678080Y-48781831D01*
X74820511Y-48639400D01*
X84107289Y-48639400D01*
X84249720Y-48781831D01*
X84630126Y-48939400D01*
X85041874Y-48939400D01*
X85422280Y-48781831D01*
X85713431Y-48490680D01*
X85871000Y-48110274D01*
X85871000Y-47698526D01*
X85713431Y-47318120D01*
X85422280Y-47026969D01*
X85041874Y-46869400D01*
X84630126Y-46869400D01*
X84249720Y-47026969D01*
X84107289Y-47169400D01*
X74820511Y-47169400D01*
X74678080Y-47026969D01*
X74297674Y-46869400D01*
X73885926Y-46869400D01*
X73505520Y-47026969D01*
X73214369Y-47318120D01*
X73056800Y-47698526D01*
X46480000Y-47698526D01*
X46480000Y-44548926D01*
X74352200Y-44548926D01*
X74352200Y-44960674D01*
X74509769Y-45341080D01*
X74800920Y-45632231D01*
X75181326Y-45789800D01*
X75593074Y-45789800D01*
X75973480Y-45632231D01*
X76115911Y-45489800D01*
X76436489Y-45489800D01*
X76578920Y-45632231D01*
X76959326Y-45789800D01*
X77371074Y-45789800D01*
X77751480Y-45632231D01*
X78042631Y-45341080D01*
X78200200Y-44960674D01*
X78200200Y-44548926D01*
X78042631Y-44168520D01*
X77751480Y-43877369D01*
X77371074Y-43719800D01*
X76959326Y-43719800D01*
X76578920Y-43877369D01*
X76436489Y-44019800D01*
X76115911Y-44019800D01*
X75973480Y-43877369D01*
X75593074Y-43719800D01*
X75181326Y-43719800D01*
X74800920Y-43877369D01*
X74509769Y-44168520D01*
X74352200Y-44548926D01*
X46480000Y-44548926D01*
X46480000Y-42974126D01*
X83801000Y-42974126D01*
X83801000Y-43385874D01*
X83958569Y-43766280D01*
X84249720Y-44057431D01*
X84630126Y-44215000D01*
X85041874Y-44215000D01*
X85422280Y-44057431D01*
X85564711Y-43915000D01*
X103411289Y-43915000D01*
X103553720Y-44057431D01*
X103934126Y-44215000D01*
X104345874Y-44215000D01*
X104726280Y-44057431D01*
X105017431Y-43766280D01*
X105175000Y-43385874D01*
X105175000Y-42974126D01*
X105017431Y-42593720D01*
X104726280Y-42302569D01*
X104345874Y-42145000D01*
X104159000Y-42145000D01*
X104159000Y-41958126D01*
X104001431Y-41577720D01*
X103710280Y-41286569D01*
X103329874Y-41129000D01*
X102918126Y-41129000D01*
X102537720Y-41286569D01*
X102395289Y-41429000D01*
X87088711Y-41429000D01*
X86946280Y-41286569D01*
X86565874Y-41129000D01*
X86154126Y-41129000D01*
X85773720Y-41286569D01*
X85482569Y-41577720D01*
X85325000Y-41958126D01*
X85325000Y-42262274D01*
X85041874Y-42145000D01*
X84630126Y-42145000D01*
X84249720Y-42302569D01*
X83958569Y-42593720D01*
X83801000Y-42974126D01*
X46480000Y-42974126D01*
X46480000Y-38358801D01*
X49259803Y-35579000D01*
X49425874Y-35579000D01*
X49806280Y-35421431D01*
X50097431Y-35130280D01*
X50255000Y-34749874D01*
X50255000Y-34338126D01*
X50097431Y-33957720D01*
X49806280Y-33666569D01*
X49425874Y-33509000D01*
X49014126Y-33509000D01*
X48633720Y-33666569D01*
X48342569Y-33957720D01*
X48185000Y-34338126D01*
X48185000Y-34504197D01*
X45235530Y-37453669D01*
X45172071Y-37496071D01*
X45004096Y-37747464D01*
X44960000Y-37969149D01*
X44960000Y-37969153D01*
X44945112Y-38044000D01*
X44960000Y-38118847D01*
X44960001Y-79140043D01*
X44341588Y-79396199D01*
X43783199Y-79954588D01*
X43481000Y-80684159D01*
X42851000Y-80684159D01*
X42548801Y-79954588D01*
X41990412Y-79396199D01*
X41260841Y-79094000D01*
X40471159Y-79094000D01*
X39741588Y-79396199D01*
X39183199Y-79954588D01*
X38881000Y-80684159D01*
X38175000Y-80684159D01*
X38175000Y-37865024D01*
X38342654Y-37977047D01*
X38659139Y-38040000D01*
X39572861Y-38040000D01*
X39889346Y-37977047D01*
X40248241Y-37737241D01*
X40488047Y-37378346D01*
X40572256Y-36955000D01*
X40488047Y-36531654D01*
X40248241Y-36172759D01*
X39889346Y-35932953D01*
X39572861Y-35870000D01*
X38659139Y-35870000D01*
X38342654Y-35932953D01*
X38175000Y-36044976D01*
X38175000Y-33068126D01*
X84626500Y-33068126D01*
X84626500Y-33479874D01*
X84784069Y-33860280D01*
X85075220Y-34151431D01*
X85455626Y-34309000D01*
X85867374Y-34309000D01*
X86247780Y-34151431D01*
X86364811Y-34034400D01*
X88399889Y-34034400D01*
X88542320Y-34176831D01*
X88922726Y-34334400D01*
X89334474Y-34334400D01*
X89714880Y-34176831D01*
X90006031Y-33885680D01*
X90163600Y-33505274D01*
X90163600Y-33093526D01*
X90006031Y-32713120D01*
X89714880Y-32421969D01*
X89334474Y-32264400D01*
X88922726Y-32264400D01*
X88542320Y-32421969D01*
X88399889Y-32564400D01*
X86415611Y-32564400D01*
X86247780Y-32396569D01*
X85867374Y-32239000D01*
X85455626Y-32239000D01*
X85075220Y-32396569D01*
X84784069Y-32687720D01*
X84626500Y-33068126D01*
X38175000Y-33068126D01*
X38175000Y-31265024D01*
X38342654Y-31377047D01*
X38659139Y-31440000D01*
X39572861Y-31440000D01*
X39889346Y-31377047D01*
X40248241Y-31137241D01*
X40488047Y-30778346D01*
X40572256Y-30355000D01*
X40488047Y-29931654D01*
X40275615Y-29613726D01*
X121139000Y-29613726D01*
X121139000Y-30025474D01*
X121296569Y-30405880D01*
X121439001Y-30548312D01*
X121439000Y-32951689D01*
X121296569Y-33094120D01*
X121139000Y-33474526D01*
X121139000Y-33886274D01*
X121296569Y-34266680D01*
X121587720Y-34557831D01*
X121968126Y-34715400D01*
X122379874Y-34715400D01*
X122760280Y-34557831D01*
X123051431Y-34266680D01*
X123209000Y-33886274D01*
X123209000Y-33474526D01*
X123051431Y-33094120D01*
X122909000Y-32951689D01*
X122909000Y-30548311D01*
X123051431Y-30405880D01*
X123072986Y-30353842D01*
X123309617Y-30511954D01*
X123524012Y-30554600D01*
X123668788Y-30554600D01*
X123883183Y-30511954D01*
X124126305Y-30349505D01*
X124288754Y-30106383D01*
X124345799Y-29819600D01*
X124288754Y-29532817D01*
X124126305Y-29289695D01*
X123883183Y-29127246D01*
X123668788Y-29084600D01*
X123524012Y-29084600D01*
X123309617Y-29127246D01*
X123072986Y-29285358D01*
X123051431Y-29233320D01*
X122760280Y-28942169D01*
X122379874Y-28784600D01*
X121968126Y-28784600D01*
X121587720Y-28942169D01*
X121296569Y-29233320D01*
X121139000Y-29613726D01*
X40275615Y-29613726D01*
X40248241Y-29572759D01*
X39889346Y-29332953D01*
X39572861Y-29270000D01*
X38659139Y-29270000D01*
X38342654Y-29332953D01*
X38175000Y-29444976D01*
X38175000Y-27988126D01*
X72879000Y-27988126D01*
X72879000Y-28399874D01*
X73036569Y-28780280D01*
X73327720Y-29071431D01*
X73708126Y-29229000D01*
X74119874Y-29229000D01*
X74500280Y-29071431D01*
X74791431Y-28780280D01*
X74949000Y-28399874D01*
X74949000Y-27988126D01*
X74791431Y-27607720D01*
X74500280Y-27316569D01*
X74119874Y-27159000D01*
X73708126Y-27159000D01*
X73327720Y-27316569D01*
X73036569Y-27607720D01*
X72879000Y-27988126D01*
X38175000Y-27988126D01*
X38175000Y-14705000D01*
X44732919Y-14705000D01*
X43729483Y-15120637D01*
G36*
X84615400Y-74933310D02*
X84615400Y-75079090D01*
X84494543Y-75199948D01*
X84480400Y-75185805D01*
X84466258Y-75199948D01*
X84345400Y-75079090D01*
X84345400Y-74933310D01*
X84466258Y-74812453D01*
X84480400Y-74826595D01*
X84494543Y-74812453D01*
X84615400Y-74933310D01*
X84615400Y-74933310D01*
G37*
X84615400Y-74933310D02*
X84615400Y-75079090D01*
X84494543Y-75199948D01*
X84480400Y-75185805D01*
X84466258Y-75199948D01*
X84345400Y-75079090D01*
X84345400Y-74933310D01*
X84466258Y-74812453D01*
X84480400Y-74826595D01*
X84494543Y-74812453D01*
X84615400Y-74933310D01*
G04 #@! TD*
M02*
