M48
;DRILL file {KiCad (5.0.2)-1} date 4/15/2019 9:52:46 PM
;FORMAT={-:-/ absolute / inch / decimal}
FMAT,2
INCH,TZ
T1C0.0157
T2C0.0177
T3C0.0197
T4C0.0295
T5C0.0394
T6C0.0433
T7C0.0551
T8C0.0650
T9C0.0689
T10C0.1575
%
G90
G05
T1
X1.71Y-1.375
X1.73Y-2.015
X1.9378Y-1.36
X2.105Y-1.325
X2.105Y-1.615
X2.2095Y-1.522
X2.405Y-1.23
X2.4845Y-1.512
X2.4845Y-1.587
X2.4895Y-1.717
X2.6395Y-1.612
X2.66Y-1.045
X2.7302Y-2.1932
X2.856Y-2.725
X2.8968Y-2.1932
X2.906Y-3.11
X2.91Y-1.11
X2.917Y-1.886
X2.918Y-1.968
X2.9195Y-1.692
X2.968Y-1.762
X3.006Y-2.01
X3.03Y-3.24
X3.038Y-1.762
X3.216Y-3.11
X3.2225Y-1.21
X3.34Y-1.7
X3.34Y-1.886
X3.3725Y-1.31
X3.398Y-1.964
X3.4Y-1.66
X3.455Y-1.025
X3.509Y-1.311
X3.51Y-3.125
X3.554Y-2.008
X3.646Y-2.536
X3.65Y-2.578
X3.6588Y-1.826
X3.6874Y-1.7835
X3.6899Y-2.411
X3.704Y-2.504
X3.72Y-1.41
X3.738Y-2.456
X3.828Y-3.168
X3.91Y-2.09
X3.96Y-2.28
X3.97Y-1.9
X4.01Y-2.58
X4.025Y-1.975
X4.05Y-2.125
X4.05Y-2.19
X4.055Y-2.07
X4.06Y-1.66
X4.09Y-1.96
X4.1Y-1.7
X4.105Y-2.035
X4.125Y-3.245
X4.28Y-2.48
X4.2874Y-2.4285
X4.3449Y-1.811
X4.35Y-2.48
X4.35Y-2.58
X4.54Y-1.81
X4.73Y-1.9
X4.765Y-1.81
X4.81Y-1.174
X4.81Y-1.326
X4.97Y-1.87
X5.Y-3.4
X5.0518Y-1.5273
X5.09Y-2.535
X5.11Y-1.66
X5.12Y-2.83
X5.145Y-1.05
T2
X2.676Y-2.953
X2.726Y-2.953
X2.776Y-2.953
X2.826Y-2.953
X2.876Y-2.953
X2.926Y-2.953
X2.976Y-2.953
X3.026Y-2.953
X3.076Y-2.953
X3.126Y-2.953
X3.176Y-2.953
X3.226Y-2.953
X3.276Y-2.953
X3.326Y-2.953
X3.376Y-2.953
X3.426Y-2.953
X3.476Y-2.953
X3.526Y-2.953
X3.576Y-2.953
X3.626Y-2.953
X3.676Y-2.953
X3.726Y-2.953
X3.776Y-2.953
X3.826Y-2.953
X3.876Y-2.953
X3.926Y-2.953
X3.976Y-2.953
X4.026Y-2.953
T5
X3.4775Y-2.7125
X3.4775Y-2.8125
X3.5775Y-2.7125
X3.5775Y-2.8125
X3.6775Y-2.7125
X3.6775Y-2.8125
T6
X3.2516Y-3.3016
X3.2516Y-3.4984
X3.4484Y-3.3016
X3.4484Y-3.4984
X2.7516Y-3.3016
X2.7516Y-3.4984
X2.9484Y-3.3016
X2.9484Y-3.4984
X4.3516Y-3.3016
X4.3516Y-3.4984
X4.5484Y-3.3016
X4.5484Y-3.4984
X3.7516Y-3.3016
X3.7516Y-3.4984
X3.9484Y-3.3016
X3.9484Y-3.4984
T7
X4.8Y-3.25
X4.9969Y-3.25
T8
X1.6089Y-3.1921
X1.79Y-3.1921
T9
X1.9258Y-2.8762
X4.7762Y-2.8762
T10
X1.825Y-0.75
X2.35Y-3.4
X4.875Y-0.75
T3
X1.5538Y-1.1951G85X1.5262Y-1.1951
G05
X1.5538Y-1.4549G85X1.5262Y-1.4549
G05
T4
X2.1502Y-2.851G85X2.1896Y-2.851
G05
X4.5124Y-2.851G85X4.5518Y-2.851
G05
T0
M30
